# 3ds Max Wavefront OBJ Exporter v0.99 - (c)2007 guruware
# File Created: 21.12.2022 14:41:50

mtllib Arrow.mtl

#
# object Arrow
#

v  5.9055 -0.8858 3.1496
v  5.9055 -0.8858 0.9843
v  5.9055 0.8858 3.1496
v  5.9055 0.8858 0.9843
v  5.9055 -0.8858 -0.9843
v  5.9055 -0.8858 -3.1496
v  5.9055 0.8858 -0.9843
v  0.0000 -0.8858 -0.0000
v  18.3926 -0.8858 -0.9842
v  18.3926 0.8858 -0.9842
v  18.3926 -0.8858 0.9843
v  0.0000 0.8858 -0.0000
v  5.9055 0.8858 -3.1496
v  18.3926 0.8858 0.9843
# 14 vertices

vn 0.4278 -0.5559 0.7127
vn 0.5774 -0.5774 0.5774
vn 0.4277 0.5559 0.7128
vn 1.0000 0.0000 -0.0000
vn 0.3015 0.9045 0.3015
vn 0.5774 -0.5774 -0.5773
vn 0.4277 -0.5559 -0.7128
vn 0.3015 0.9045 -0.3015
vn -0.6022 -0.7983 -0.0000
vn 0.5773 -0.5774 -0.5773
vn 0.5774 0.5774 -0.5773
vn 0.5773 -0.5774 0.5774
vn -0.7484 0.6633 -0.0002
vn 0.3081 0.8009 -0.5135
vn 0.5773 0.5774 0.5774
# 15 vertex normals

vt 0.0000 0.0000 0.0000
vt 0.2806 0.0000 0.0000
vt 0.0000 1.0000 0.0000
vt 0.2806 1.0000 0.0000
vt 0.7188 0.0000 0.0000
vt 1.0000 0.0000 0.0000
vt 0.7188 1.0000 0.0000
vt 1.0000 1.0000 0.0000
# 8 texture coords

o Arrow
g Arrow
usemtl wire_115115115
s 16
f 1/1/1 2/2/2 3/3/3 
s off
f 3/3/4 3/3/3 4/4/5 
s 16
f 5/5/6 6/6/7 7/7/8 
s off
f 1/1/1 3/3/3 8/6/9 
f 9/5/10 10/7/11 11/2/12 
f 8/6/9 12/8/13 6/6/7 
f 3/3/4 4/4/5 12/8/13 
f 7/7/8 13/8/14 12/8/13 
f 7/7/8 12/8/13 4/4/5 
f 4/4/5 11/2/12 14/4/15 
f 2/2/2 9/5/10 11/2/12 
f 5/5/6 10/7/11 9/5/10 
f 4/4/5 14/4/15 7/7/8 
f 8/6/9 6/6/7 1/1/1 
s 16
f 2/2/2 4/4/5 3/3/3 
f 6/6/7 13/8/14 7/7/8 
s off
f 3/3/3 12/8/13 8/6/9 
f 10/7/11 14/4/15 11/2/12 
f 12/8/13 13/8/14 6/6/7 
f 12/8/13 3/3/3 3/3/4 
f 4/4/5 2/2/2 11/2/12 
f 2/2/2 5/5/6 9/5/10 
f 5/5/6 7/7/8 10/7/11 
f 14/4/15 10/7/11 7/7/8 
# 0 polygons - 24 triangles

