# 3ds Max Wavefront OBJ Exporter v0.99 - (c)2007 guruware
# File Created: 19.12.2022 14:01:15

mtllib CastleWallOBJ.mtl

#
# object Castle_Wall
#

v  -2.9412 0.0000 -2.9648
v  2.9412 0.0000 -2.9648
v  2.9412 0.0000 2.9648
v  -2.9412 0.0000 2.9648
v  -3.1504 50.4598 2.7556
v  3.1504 50.4598 2.7556
v  3.1504 50.4598 -2.7556
v  -3.1504 50.4598 -2.7556
v  2.9412 0.9843 2.9648
v  -2.9412 0.9843 2.9648
v  50.0000 0.0000 2.9648
v  50.0000 0.0000 -2.9648
v  50.0000 0.9843 -2.9648
v  50.0000 0.9843 2.9648
v  -2.9412 0.9843 -2.9648
v  2.9412 0.9843 -2.9648
v  -50.0000 0.0000 -2.9648
v  -50.0000 0.0000 2.9648
v  -50.0000 0.9843 2.9648
v  -50.0000 0.9843 -2.9648
v  44.1176 0.0000 -2.9648
v  44.1176 0.0000 2.9648
v  38.2353 0.0000 -2.9648
v  38.2353 0.0000 2.9648
v  32.3529 0.0000 -2.9648
v  32.3529 0.0000 2.9648
v  26.4706 0.0000 -2.9648
v  26.4706 0.0000 2.9648
v  20.5882 0.0000 -2.9648
v  20.5882 0.0000 2.9648
v  14.7059 0.0000 -2.9648
v  14.7059 0.0000 2.9648
v  8.8235 0.0000 -2.9648
v  8.8235 0.0000 2.9648
v  -44.1176 0.0000 2.9648
v  -44.1176 0.0000 -2.9648
v  -38.2353 0.0000 2.9648
v  -38.2353 0.0000 -2.9648
v  -32.3529 0.0000 2.9648
v  -32.3529 0.0000 -2.9648
v  -26.4706 0.0000 2.9648
v  -26.4706 0.0000 -2.9648
v  -20.5882 0.0000 2.9648
v  -20.5882 0.0000 -2.9648
v  -14.7059 0.0000 2.9648
v  -14.7059 0.0000 -2.9648
v  -8.8235 0.0000 2.9648
v  -8.8235 0.0000 -2.9648
v  43.9084 50.4598 2.7556
v  49.7908 50.4598 2.7556
v  49.7908 50.4598 -2.7556
v  43.9084 50.4598 -2.7556
v  38.2353 41.5688 2.5464
v  44.1176 41.5688 2.5464
v  44.1176 41.5688 -2.5464
v  38.2353 41.5688 -2.5464
v  32.1437 50.4598 2.7556
v  38.4445 50.4598 2.7556
v  38.4445 50.4598 -2.7556
v  32.1437 50.4598 -2.7556
v  26.4706 41.5688 2.5464
v  32.3529 41.5688 2.5464
v  32.3529 41.5688 -2.5464
v  26.4706 41.5688 -2.5464
v  20.3790 50.4598 2.7556
v  26.6798 50.4598 2.7556
v  26.6798 50.4598 -2.7556
v  20.3790 50.4598 -2.7556
v  14.7059 41.5688 2.5464
v  20.5882 41.5688 2.5464
v  20.5882 41.5688 -2.5464
v  14.7059 41.5688 -2.5464
v  8.6143 50.4598 2.7556
v  14.9151 50.4598 2.7556
v  14.9151 50.4598 -2.7556
v  8.6143 50.4598 -2.7556
v  2.9412 41.5688 2.5464
v  8.8235 41.5688 2.5464
v  8.8235 41.5688 -2.5464
v  2.9412 41.5688 -2.5464
v  -43.9084 50.4598 -2.7556
v  -49.7908 50.4598 -2.7556
v  -49.7908 50.4598 2.7556
v  -43.9084 50.4598 2.7556
v  -38.2353 41.5688 -2.5464
v  -44.1176 41.5688 -2.5464
v  -44.1176 41.5688 2.5464
v  -38.2353 41.5688 2.5464
v  -32.1437 50.4598 -2.7556
v  -38.4445 50.4598 -2.7556
v  -38.4445 50.4598 2.7556
v  -32.1437 50.4598 2.7556
v  -26.4706 41.5688 -2.5464
v  -32.3529 41.5688 -2.5464
v  -32.3529 41.5688 2.5464
v  -26.4706 41.5688 2.5464
v  -20.3790 50.4598 -2.7556
v  -26.6798 50.4598 -2.7556
v  -26.6798 50.4598 2.7556
v  -20.3790 50.4598 2.7556
v  -14.7059 41.5688 -2.5464
v  -20.5882 41.5688 -2.5464
v  -20.5882 41.5688 2.5464
v  -14.7059 41.5688 2.5464
v  -8.6143 50.4598 -2.7556
v  -14.9151 50.4598 -2.7556
v  -14.9151 50.4598 2.7556
v  -8.6143 50.4598 2.7556
v  -2.9412 41.5688 -2.5464
v  -8.8235 41.5688 -2.5464
v  -8.8235 41.5688 2.5464
v  -2.9412 41.5688 2.5464
v  44.1176 0.9843 2.9648
v  38.2353 0.9843 2.9648
v  32.3529 0.9843 2.9648
v  26.4706 0.9843 2.9648
v  20.5882 0.9843 2.9648
v  14.7059 0.9843 2.9648
v  8.8235 0.9843 2.9648
v  -44.1176 0.9843 2.9648
v  -38.2353 0.9843 2.9648
v  -32.3529 0.9843 2.9648
v  -26.4706 0.9843 2.9648
v  -20.5882 0.9843 2.9648
v  -14.7059 0.9843 2.9648
v  -8.8235 0.9843 2.9648
v  -44.1176 0.9843 -2.9648
v  -38.2353 0.9843 -2.9648
v  -32.3529 0.9843 -2.9648
v  -26.4706 0.9843 -2.9648
v  -20.5882 0.9843 -2.9648
v  -14.7059 0.9843 -2.9648
v  -8.8235 0.9843 -2.9648
v  44.1176 0.9843 -2.9648
v  38.2353 0.9843 -2.9648
v  32.3529 0.9843 -2.9648
v  26.4706 0.9843 -2.9648
v  20.5882 0.9843 -2.9648
v  14.7059 0.9843 -2.9648
v  8.8235 0.9843 -2.9648
v  -44.1176 2.9716 2.5464
v  -49.5816 2.9716 2.5464
v  -38.2353 2.9716 2.5464
v  -32.3529 2.9716 2.5464
v  -26.4706 2.9716 2.5464
v  -20.5882 2.9716 2.5464
v  -14.7059 2.9716 2.5464
v  -8.8235 2.9716 2.5464
v  -2.9412 2.9716 2.5464
v  2.9412 2.9716 2.5464
v  8.8235 2.9716 2.5464
v  14.7059 2.9716 2.5464
v  20.5882 2.9716 2.5464
v  26.4706 2.9716 2.5464
v  32.3529 2.9716 2.5464
v  38.2353 2.9716 2.5464
v  44.1176 2.9716 2.5464
v  49.5816 2.9716 2.5464
v  49.5816 2.9716 -2.5464
v  44.1176 2.9716 -2.5464
v  38.2353 2.9716 -2.5464
v  32.3529 2.9716 -2.5464
v  26.4706 2.9716 -2.5464
v  20.5882 2.9716 -2.5464
v  14.7059 2.9716 -2.5464
v  8.8235 2.9716 -2.5464
v  2.9412 2.9716 -2.5464
v  -2.9412 2.9716 -2.5464
v  -8.8235 2.9716 -2.5464
v  -14.7059 2.9716 -2.5464
v  -20.5882 2.9716 -2.5464
v  -26.4706 2.9716 -2.5464
v  -32.3529 2.9716 -2.5464
v  -38.2353 2.9716 -2.5464
v  -44.1176 2.9716 -2.5464
v  -49.5816 2.9716 -2.5464
v  -49.5816 41.5688 2.5464
v  49.5816 41.5688 2.5464
v  49.5816 41.5688 -2.5464
v  -49.5816 41.5688 -2.5464
v  2.9412 42.9286 -2.5464
v  2.9412 42.9286 2.5464
v  -2.9412 42.9286 -2.5464
v  -2.9412 42.9286 2.5464
v  44.1176 42.9286 2.5464
v  44.1176 42.9286 -2.5464
v  49.5816 42.9286 2.5464
v  49.5816 42.9286 -2.5464
v  38.2353 42.9286 -2.5464
v  38.2353 42.9286 2.5464
v  32.3529 42.9286 -2.5464
v  32.3529 42.9286 2.5464
v  26.4706 42.9286 -2.5464
v  26.4706 42.9286 2.5464
v  20.5882 42.9286 -2.5464
v  20.5882 42.9286 2.5464
v  14.7059 42.9286 -2.5464
v  14.7059 42.9286 2.5464
v  8.8235 42.9286 -2.5464
v  8.8235 42.9286 2.5464
v  -44.1176 42.9286 -2.5464
v  -44.1176 42.9286 2.5464
v  -49.5816 42.9286 -2.5464
v  -49.5816 42.9286 2.5464
v  -38.2353 42.9286 2.5464
v  -38.2353 42.9286 -2.5464
v  -32.3529 42.9286 2.5464
v  -32.3529 42.9286 -2.5464
v  -26.4706 42.9286 2.5464
v  -26.4706 42.9286 -2.5464
v  -20.5882 42.9286 2.5464
v  -20.5882 42.9286 -2.5464
v  -14.7059 42.9286 2.5464
v  -14.7059 42.9286 -2.5464
v  -8.8235 42.9286 2.5464
v  -8.8235 42.9286 -2.5464
v  2.4182 43.7654 -2.0234
v  2.4182 43.7654 2.0234
v  -2.4182 43.7654 -2.0234
v  -2.4182 43.7654 2.0234
v  44.6406 43.7654 2.0234
v  44.6406 43.7654 -2.0234
v  49.0586 43.7654 2.0234
v  49.0586 43.7654 -2.0234
v  37.7123 43.7654 -2.0234
v  37.7123 43.7654 2.0234
v  32.8759 43.7654 -2.0234
v  32.8759 43.7654 2.0234
v  25.9476 43.7654 -2.0234
v  25.9476 43.7654 2.0234
v  21.1112 43.7654 -2.0234
v  21.1112 43.7654 2.0234
v  14.1829 43.7654 -2.0234
v  14.1829 43.7654 2.0234
v  9.3465 43.7654 -2.0234
v  9.3465 43.7654 2.0234
v  -44.6406 43.7654 -2.0234
v  -44.6406 43.7654 2.0234
v  -49.0586 43.7654 -2.0234
v  -49.0586 43.7654 2.0234
v  -37.7123 43.7654 2.0234
v  -37.7123 43.7654 -2.0234
v  -32.8759 43.7654 2.0234
v  -32.8759 43.7654 -2.0234
v  -25.9476 43.7654 2.0234
v  -25.9476 43.7654 -2.0234
v  -21.1112 43.7654 2.0234
v  -21.1112 43.7654 -2.0234
v  -14.1829 43.7654 2.0234
v  -14.1829 43.7654 -2.0234
v  -9.3465 43.7654 2.0234
v  -9.3465 43.7654 -2.0234
v  2.5228 44.3930 -2.1280
v  2.5228 44.3930 2.1280
v  -2.5228 44.3930 -2.1280
v  -2.5228 44.3930 2.1280
v  44.5360 44.3930 2.1280
v  44.5360 44.3930 -2.1280
v  49.1632 44.3930 2.1280
v  49.1632 44.3930 -2.1280
v  37.8169 44.3930 -2.1280
v  37.8169 44.3930 2.1280
v  32.7713 44.3930 -2.1280
v  32.7713 44.3930 2.1280
v  26.0522 44.3930 -2.1280
v  26.0522 44.3930 2.1280
v  21.0066 44.3930 -2.1280
v  21.0066 44.3930 2.1280
v  14.2875 44.3930 -2.1280
v  14.2875 44.3930 2.1280
v  9.2419 44.3930 -2.1280
v  9.2419 44.3930 2.1280
v  -44.5360 44.3930 -2.1280
v  -44.5360 44.3930 2.1280
v  -49.1632 44.3930 -2.1280
v  -49.1632 44.3930 2.1280
v  -37.8169 44.3930 2.1280
v  -37.8169 44.3930 -2.1280
v  -32.7713 44.3930 2.1280
v  -32.7713 44.3930 -2.1280
v  -26.0522 44.3930 2.1280
v  -26.0522 44.3930 -2.1280
v  -21.0066 44.3930 2.1280
v  -21.0066 44.3930 -2.1280
v  -14.2875 44.3930 2.1280
v  -14.2875 44.3930 -2.1280
v  -9.2419 44.3930 2.1280
v  -9.2419 44.3930 -2.1280
v  2.3136 49.2046 -1.9188
v  2.3136 49.2046 1.9188
v  -2.3136 49.2046 -1.9188
v  -2.3136 49.2046 1.9188
v  44.7452 49.2046 1.9188
v  44.7452 49.2046 -1.9188
v  48.9540 49.2046 1.9188
v  48.9540 49.2046 -1.9188
v  37.6077 49.2046 -1.9188
v  37.6077 49.2046 1.9188
v  32.9805 49.2046 -1.9188
v  32.9805 49.2046 1.9188
v  25.8430 49.2046 -1.9188
v  25.8430 49.2046 1.9188
v  21.2158 49.2046 -1.9188
v  21.2158 49.2046 1.9188
v  14.0783 49.2046 -1.9188
v  14.0783 49.2046 1.9188
v  9.4511 49.2046 -1.9188
v  9.4511 49.2046 1.9188
v  -44.7452 49.2046 -1.9188
v  -44.7452 49.2046 1.9188
v  -48.9540 49.2046 -1.9188
v  -48.9540 49.2046 1.9188
v  -37.6077 49.2046 1.9188
v  -37.6077 49.2046 -1.9188
v  -32.9805 49.2046 1.9188
v  -32.9805 49.2046 -1.9188
v  -25.8430 49.2046 1.9188
v  -25.8430 49.2046 -1.9188
v  -21.2158 49.2046 1.9188
v  -21.2158 49.2046 -1.9188
v  -14.0783 49.2046 1.9188
v  -14.0783 49.2046 -1.9188
v  -9.4511 49.2046 1.9188
v  -9.4511 49.2046 -1.9188
# 324 vertices

vn 0.0000 -0.7071 -0.7071
vn 0.0000 -0.7071 0.7071
vn -0.6751 0.2973 0.6751
vn 0.6751 0.2973 0.6751
vn 0.6751 0.2973 -0.6751
vn -0.6751 0.2973 -0.6751
vn 0.0000 0.1036 0.9946
vn 0.5774 -0.5774 0.5774
vn 0.5774 -0.5774 -0.5774
vn 0.7006 0.1357 -0.7006
vn 0.7006 0.1357 0.7006
vn 0.0000 0.1036 -0.9946
vn -0.5774 -0.5774 -0.5774
vn -0.5774 -0.5774 0.5774
vn -0.7006 0.1357 0.7006
vn -0.7006 0.1357 -0.7006
vn 0.3015 0.3015 0.9045
vn -0.3015 0.3015 0.9045
vn -0.3015 0.3015 -0.9045
vn 0.3015 0.3015 -0.9045
vn -0.6986 0.1544 0.6986
vn 0.6986 0.1544 0.6986
vn 0.6986 0.1544 -0.6986
vn -0.6986 0.1544 -0.6986
vn -0.7071 0.0000 0.7071
vn 0.7071 0.0000 0.7071
vn 0.7071 0.0000 -0.7071
vn -0.7071 0.0000 -0.7071
vn 0.6722 0.3101 -0.6722
vn 0.6722 0.3101 0.6722
vn -0.6722 0.3101 -0.6722
vn -0.6722 0.3101 0.6722
vn 0.6715 0.3132 -0.6715
vn 0.6715 0.3132 0.6715
vn -0.6715 0.3132 -0.6715
vn -0.6715 0.3132 0.6715
vn 0.7048 -0.0799 -0.7048
vn 0.7048 -0.0799 0.7048
vn -0.7048 -0.0799 -0.7048
vn -0.7048 -0.0799 0.7048
vn 0.6429 -0.4164 -0.6429
vn 0.6429 -0.4164 0.6429
vn -0.6429 -0.4164 -0.6429
vn -0.6429 -0.4164 0.6429
# 44 vertex normals

vt 0.5294 1.0000 0.0000
vt 0.4706 1.0000 0.0000
vt 0.4706 0.0000 0.0000
vt 0.5294 0.0000 0.0000
vt 0.0000 0.0000 0.0000
vt 1.0000 0.0000 0.0000
vt 1.0000 1.0000 0.0000
vt 0.0000 1.0000 0.0000
vt 0.0588 1.0000 0.0000
vt 0.0588 0.0000 0.0000
vt 0.1176 1.0000 0.0000
vt 0.1176 0.0000 0.0000
vt 0.1765 1.0000 0.0000
vt 0.1765 0.0000 0.0000
vt 0.2353 1.0000 0.0000
vt 0.2353 0.0000 0.0000
vt 0.2941 1.0000 0.0000
vt 0.2941 0.0000 0.0000
vt 0.3529 1.0000 0.0000
vt 0.3529 0.0000 0.0000
vt 0.4118 1.0000 0.0000
vt 0.4118 0.0000 0.0000
vt 0.9412 0.0000 0.0000
vt 0.9412 1.0000 0.0000
vt 0.8824 0.0000 0.0000
vt 0.8824 1.0000 0.0000
vt 0.8235 0.0000 0.0000
vt 0.8235 1.0000 0.0000
vt 0.7647 0.0000 0.0000
vt 0.7647 1.0000 0.0000
vt 0.7059 0.0000 0.0000
vt 0.7059 1.0000 0.0000
vt 0.6471 0.0000 0.0000
vt 0.6471 1.0000 0.0000
vt 0.5882 0.0000 0.0000
vt 0.5882 1.0000 0.0000
# 36 texture coords

o Castle_Wall
g Castle_Wall
usemtl wire_115115115
s 2
f 1/1/1 2/2/1 3/3/2 4/4/2 
s 4
f 5/3/3 6/4/4 7/1/5 8/2/6 
s 8
f 4/3/2 3/4/2 9/1/7 10/2/7 
s 16
f 11/5/8 12/6/9 13/7/10 14/8/11 
s 32
f 2/3/1 1/4/1 15/1/12 16/2/12 
s 64
f 17/5/13 18/6/14 19/7/15 20/8/16 
s 2
f 21/9/1 12/8/9 11/5/8 22/10/2 
f 23/11/1 21/9/1 22/10/2 24/12/2 
f 25/13/1 23/11/1 24/12/2 26/14/2 
f 27/15/1 25/13/1 26/14/2 28/16/2 
f 29/17/1 27/15/1 28/16/2 30/18/2 
f 31/19/1 29/17/1 30/18/2 32/20/2 
f 33/21/1 31/19/1 32/20/2 34/22/2 
f 2/2/1 33/21/1 34/22/2 3/3/2 
f 35/23/2 18/6/14 17/7/13 36/24/1 
f 37/25/2 35/23/2 36/24/1 38/26/1 
f 39/27/2 37/25/2 38/26/1 40/28/1 
f 41/29/2 39/27/2 40/28/1 42/30/1 
f 43/31/2 41/29/2 42/30/1 44/32/1 
f 45/33/2 43/31/2 44/32/1 46/34/1 
f 47/35/2 45/33/2 46/34/1 48/36/1 
f 4/4/2 47/35/2 48/36/1 1/1/1 
s 4
f 49/23/3 50/6/4 51/7/5 52/24/6 
f 53/25/17 54/23/18 55/24/19 56/26/20 
f 57/27/3 58/25/4 59/26/5 60/28/6 
f 61/29/17 62/27/18 63/28/19 64/30/20 
f 65/31/3 66/29/4 67/30/5 68/32/6 
f 69/33/17 70/31/18 71/32/19 72/34/20 
f 73/35/3 74/33/4 75/34/5 76/36/6 
f 77/4/17 78/35/18 79/36/19 80/1/20 
f 81/9/5 82/8/6 83/5/3 84/10/4 
f 85/11/19 86/9/20 87/10/17 88/12/18 
f 89/13/5 90/11/6 91/12/3 92/14/4 
f 93/15/19 94/13/20 95/14/17 96/16/18 
f 97/17/5 98/15/6 99/16/3 100/18/4 
f 101/19/19 102/17/20 103/18/17 104/20/18 
f 105/21/5 106/19/6 107/20/3 108/22/4 
f 109/2/19 110/21/20 111/22/17 112/3/18 
s 8
f 22/23/2 11/6/8 14/7/11 113/24/7 
f 24/25/2 22/23/2 113/24/7 114/26/7 
f 26/27/2 24/25/2 114/26/7 115/28/7 
f 28/29/2 26/27/2 115/28/7 116/30/7 
f 30/31/2 28/29/2 116/30/7 117/32/7 
f 32/33/2 30/31/2 117/32/7 118/34/7 
f 34/35/2 32/33/2 118/34/7 119/36/7 
f 3/4/2 34/35/2 119/36/7 9/1/7 
f 120/9/7 19/8/15 18/5/14 35/10/2 
f 121/11/7 120/9/7 35/10/2 37/12/2 
f 122/13/7 121/11/7 37/12/2 39/14/2 
f 123/15/7 122/13/7 39/14/2 41/16/2 
f 124/17/7 123/15/7 41/16/2 43/18/2 
f 125/19/7 124/17/7 43/18/2 45/20/2 
f 126/21/7 125/19/7 45/20/2 47/22/2 
f 10/2/7 126/21/7 47/22/2 4/3/2 
s 32
f 36/23/1 17/6/13 20/7/16 127/24/12 
f 38/25/1 36/23/1 127/24/12 128/26/12 
f 40/27/1 38/25/1 128/26/12 129/28/12 
f 42/29/1 40/27/1 129/28/12 130/30/12 
f 44/31/1 42/29/1 130/30/12 131/32/12 
f 46/33/1 44/31/1 131/32/12 132/34/12 
f 48/35/1 46/33/1 132/34/12 133/36/12 
f 1/4/1 48/35/1 133/36/12 15/1/12 
f 134/9/12 13/8/10 12/5/9 21/10/1 
f 135/11/12 134/9/12 21/10/1 23/12/1 
f 136/13/12 135/11/12 23/12/1 25/14/1 
f 137/15/12 136/13/12 25/14/1 27/16/1 
f 138/17/12 137/15/12 27/16/1 29/18/1 
f 139/19/12 138/17/12 29/18/1 31/20/1 
f 140/21/12 139/19/12 31/20/1 33/22/1 
f 16/2/12 140/21/12 33/22/1 2/3/1 
s off
f 19/5/15 120/10/7 141/10/7 142/5/21 
f 120/10/7 121/12/7 143/12/7 141/10/7 
f 121/12/7 122/14/7 144/14/7 143/12/7 
f 122/14/7 123/16/7 145/16/7 144/14/7 
f 123/16/7 124/18/7 146/18/7 145/16/7 
f 124/18/7 125/20/7 147/20/7 146/18/7 
f 125/20/7 126/22/7 148/22/7 147/20/7 
f 126/22/7 10/3/7 149/3/7 148/22/7 
f 10/3/7 9/4/7 150/4/7 149/3/7 
f 9/4/7 119/35/7 151/35/7 150/4/7 
f 119/35/7 118/33/7 152/33/7 151/35/7 
f 118/33/7 117/31/7 153/31/7 152/33/7 
f 117/31/7 116/29/7 154/29/7 153/31/7 
f 116/29/7 115/27/7 155/27/7 154/29/7 
f 115/27/7 114/25/7 156/25/7 155/27/7 
f 114/25/7 113/23/7 157/23/7 156/25/7 
f 113/23/7 14/6/11 158/6/22 157/23/7 
f 14/6/11 13/7/10 159/7/23 158/6/22 
f 13/7/10 134/24/12 160/24/12 159/7/23 
f 134/24/12 135/26/12 161/26/12 160/24/12 
f 135/26/12 136/28/12 162/28/12 161/26/12 
f 136/28/12 137/30/12 163/30/12 162/28/12 
f 137/30/12 138/32/12 164/32/12 163/30/12 
f 138/32/12 139/34/12 165/34/12 164/32/12 
f 139/34/12 140/36/12 166/36/12 165/34/12 
f 140/36/12 16/1/12 167/1/12 166/36/12 
f 16/1/12 15/2/12 168/2/12 167/1/12 
f 15/2/12 133/21/12 169/21/12 168/2/12 
f 133/21/12 132/19/12 170/19/12 169/21/12 
f 132/19/12 131/17/12 171/17/12 170/19/12 
f 131/17/12 130/15/12 172/15/12 171/17/12 
f 130/15/12 129/13/12 173/13/12 172/15/12 
f 129/13/12 128/11/12 174/11/12 173/13/12 
f 128/11/12 127/9/12 175/9/12 174/11/12 
f 127/9/12 20/8/16 176/8/24 175/9/12 
f 20/8/16 19/5/15 142/5/21 176/8/24 
f 142/5/21 141/10/7 87/10/17 177/5/25 
f 141/10/7 143/12/7 88/12/18 87/10/17 
f 143/12/7 144/14/7 95/14/17 88/12/18 
f 144/14/7 145/16/7 96/16/18 95/14/17 
f 145/16/7 146/18/7 103/18/17 96/16/18 
f 146/18/7 147/20/7 104/20/18 103/18/17 
f 147/20/7 148/22/7 111/22/17 104/20/18 
f 148/22/7 149/3/7 112/3/18 111/22/17 
f 149/3/7 150/4/7 77/4/17 112/3/18 
f 150/4/7 151/35/7 78/35/18 77/4/17 
f 151/35/7 152/33/7 69/33/17 78/35/18 
f 152/33/7 153/31/7 70/31/18 69/33/17 
f 153/31/7 154/29/7 61/29/17 70/31/18 
f 154/29/7 155/27/7 62/27/18 61/29/17 
f 155/27/7 156/25/7 53/25/17 62/27/18 
f 156/25/7 157/23/7 54/23/18 53/25/17 
f 157/23/7 158/6/22 178/6/26 54/23/18 
f 158/6/22 159/7/23 179/7/27 178/6/26 
f 159/7/23 160/24/12 55/24/19 179/7/27 
f 160/24/12 161/26/12 56/26/20 55/24/19 
f 161/26/12 162/28/12 63/28/19 56/26/20 
f 162/28/12 163/30/12 64/30/20 63/28/19 
f 163/30/12 164/32/12 71/32/19 64/30/20 
f 164/32/12 165/34/12 72/34/20 71/32/19 
f 165/34/12 166/36/12 79/36/19 72/34/20 
f 166/36/12 167/1/12 80/1/20 79/36/19 
f 167/1/12 168/2/12 109/2/19 80/1/20 
f 168/2/12 169/21/12 110/21/20 109/2/19 
f 169/21/12 170/19/12 101/19/19 110/21/20 
f 170/19/12 171/17/12 102/17/20 101/19/19 
f 171/17/12 172/15/12 93/15/19 102/17/20 
f 172/15/12 173/13/12 94/13/20 93/15/19 
f 173/13/12 174/11/12 85/11/19 94/13/20 
f 174/11/12 175/9/12 86/9/20 85/11/19 
f 175/9/12 176/8/24 180/8/28 86/9/20 
f 176/8/24 142/5/21 177/5/25 180/8/28 
f 77/4/17 80/1/20 181/1/29 182/4/30 
f 80/1/20 109/2/19 183/2/31 181/1/29 
f 109/2/19 112/3/18 184/3/32 183/2/31 
f 112/3/18 77/4/17 182/4/30 184/3/32 
f 55/24/19 54/23/18 185/23/32 186/24/31 
f 54/23/18 178/6/26 187/6/30 185/23/32 
f 178/6/26 179/7/27 188/7/29 187/6/30 
f 179/7/27 55/24/19 186/24/31 188/7/29 
f 53/25/17 56/26/20 189/26/29 190/25/30 
f 56/26/20 63/28/19 191/28/31 189/26/29 
f 63/28/19 62/27/18 192/27/32 191/28/31 
f 62/27/18 53/25/17 190/25/30 192/27/32 
f 61/29/17 64/30/20 193/30/29 194/29/30 
f 64/30/20 71/32/19 195/32/31 193/30/29 
f 71/32/19 70/31/18 196/31/32 195/32/31 
f 70/31/18 61/29/17 194/29/30 196/31/32 
f 69/33/17 72/34/20 197/34/29 198/33/30 
f 72/34/20 79/36/19 199/36/31 197/34/29 
f 79/36/19 78/35/18 200/35/32 199/36/31 
f 78/35/18 69/33/17 198/33/30 200/35/32 
f 87/10/17 86/9/20 201/9/29 202/10/30 
f 86/9/20 180/8/28 203/8/31 201/9/29 
f 180/8/28 177/5/25 204/5/32 203/8/31 
f 177/5/25 87/10/17 202/10/30 204/5/32 
f 85/11/19 88/12/18 205/12/32 206/11/31 
f 88/12/18 95/14/17 207/14/30 205/12/32 
f 95/14/17 94/13/20 208/13/29 207/14/30 
f 94/13/20 85/11/19 206/11/31 208/13/29 
f 93/15/19 96/16/18 209/16/32 210/15/31 
f 96/16/18 103/18/17 211/18/30 209/16/32 
f 103/18/17 102/17/20 212/17/29 211/18/30 
f 102/17/20 93/15/19 210/15/31 212/17/29 
f 101/19/19 104/20/18 213/20/32 214/19/31 
f 104/20/18 111/22/17 215/22/30 213/20/32 
f 111/22/17 110/21/20 216/21/29 215/22/30 
f 110/21/20 101/19/19 214/19/31 216/21/29 
f 182/4/30 181/1/29 217/1/33 218/4/34 
f 181/1/29 183/2/31 219/2/35 217/1/33 
f 183/2/31 184/3/32 220/3/36 219/2/35 
f 184/3/32 182/4/30 218/4/34 220/3/36 
f 186/24/31 185/23/32 221/23/36 222/24/35 
f 185/23/32 187/6/30 223/6/34 221/23/36 
f 187/6/30 188/7/29 224/7/33 223/6/34 
f 188/7/29 186/24/31 222/24/35 224/7/33 
f 190/25/30 189/26/29 225/26/33 226/25/34 
f 189/26/29 191/28/31 227/28/35 225/26/33 
f 191/28/31 192/27/32 228/27/36 227/28/35 
f 192/27/32 190/25/30 226/25/34 228/27/36 
f 194/29/30 193/30/29 229/30/33 230/29/34 
f 193/30/29 195/32/31 231/32/35 229/30/33 
f 195/32/31 196/31/32 232/31/36 231/32/35 
f 196/31/32 194/29/30 230/29/34 232/31/36 
f 198/33/30 197/34/29 233/34/33 234/33/34 
f 197/34/29 199/36/31 235/36/35 233/34/33 
f 199/36/31 200/35/32 236/35/36 235/36/35 
f 200/35/32 198/33/30 234/33/34 236/35/36 
f 202/10/30 201/9/29 237/9/33 238/10/34 
f 201/9/29 203/8/31 239/8/35 237/9/33 
f 203/8/31 204/5/32 240/5/36 239/8/35 
f 204/5/32 202/10/30 238/10/34 240/5/36 
f 206/11/31 205/12/32 241/12/36 242/11/35 
f 205/12/32 207/14/30 243/14/34 241/12/36 
f 207/14/30 208/13/29 244/13/33 243/14/34 
f 208/13/29 206/11/31 242/11/35 244/13/33 
f 210/15/31 209/16/32 245/16/36 246/15/35 
f 209/16/32 211/18/30 247/18/34 245/16/36 
f 211/18/30 212/17/29 248/17/33 247/18/34 
f 212/17/29 210/15/31 246/15/35 248/17/33 
f 214/19/31 213/20/32 249/20/36 250/19/35 
f 213/20/32 215/22/30 251/22/34 249/20/36 
f 215/22/30 216/21/29 252/21/33 251/22/34 
f 216/21/29 214/19/31 250/19/35 252/21/33 
f 218/4/34 217/1/33 253/1/37 254/4/38 
f 217/1/33 219/2/35 255/2/39 253/1/37 
f 219/2/35 220/3/36 256/3/40 255/2/39 
f 220/3/36 218/4/34 254/4/38 256/3/40 
f 222/24/35 221/23/36 257/23/40 258/24/39 
f 221/23/36 223/6/34 259/6/38 257/23/40 
f 223/6/34 224/7/33 260/7/37 259/6/38 
f 224/7/33 222/24/35 258/24/39 260/7/37 
f 226/25/34 225/26/33 261/26/37 262/25/38 
f 225/26/33 227/28/35 263/28/39 261/26/37 
f 227/28/35 228/27/36 264/27/40 263/28/39 
f 228/27/36 226/25/34 262/25/38 264/27/40 
f 230/29/34 229/30/33 265/30/37 266/29/38 
f 229/30/33 231/32/35 267/32/39 265/30/37 
f 231/32/35 232/31/36 268/31/40 267/32/39 
f 232/31/36 230/29/34 266/29/38 268/31/40 
f 234/33/34 233/34/33 269/34/37 270/33/38 
f 233/34/33 235/36/35 271/36/39 269/34/37 
f 235/36/35 236/35/36 272/35/40 271/36/39 
f 236/35/36 234/33/34 270/33/38 272/35/40 
f 238/10/34 237/9/33 273/9/37 274/10/38 
f 237/9/33 239/8/35 275/8/39 273/9/37 
f 239/8/35 240/5/36 276/5/40 275/8/39 
f 240/5/36 238/10/34 274/10/38 276/5/40 
f 242/11/35 241/12/36 277/12/40 278/11/39 
f 241/12/36 243/14/34 279/14/38 277/12/40 
f 243/14/34 244/13/33 280/13/37 279/14/38 
f 244/13/33 242/11/35 278/11/39 280/13/37 
f 246/15/35 245/16/36 281/16/40 282/15/39 
f 245/16/36 247/18/34 283/18/38 281/16/40 
f 247/18/34 248/17/33 284/17/37 283/18/38 
f 248/17/33 246/15/35 282/15/39 284/17/37 
f 250/19/35 249/20/36 285/20/40 286/19/39 
f 249/20/36 251/22/34 287/22/38 285/20/40 
f 251/22/34 252/21/33 288/21/37 287/22/38 
f 252/21/33 250/19/35 286/19/39 288/21/37 
f 254/4/38 253/1/37 289/1/41 290/4/42 
f 253/1/37 255/2/39 291/2/43 289/1/41 
f 255/2/39 256/3/40 292/3/44 291/2/43 
f 256/3/40 254/4/38 290/4/42 292/3/44 
f 258/24/39 257/23/40 293/23/44 294/24/43 
f 257/23/40 259/6/38 295/6/42 293/23/44 
f 259/6/38 260/7/37 296/7/41 295/6/42 
f 260/7/37 258/24/39 294/24/43 296/7/41 
f 262/25/38 261/26/37 297/26/41 298/25/42 
f 261/26/37 263/28/39 299/28/43 297/26/41 
f 263/28/39 264/27/40 300/27/44 299/28/43 
f 264/27/40 262/25/38 298/25/42 300/27/44 
f 266/29/38 265/30/37 301/30/41 302/29/42 
f 265/30/37 267/32/39 303/32/43 301/30/41 
f 267/32/39 268/31/40 304/31/44 303/32/43 
f 268/31/40 266/29/38 302/29/42 304/31/44 
f 270/33/38 269/34/37 305/34/41 306/33/42 
f 269/34/37 271/36/39 307/36/43 305/34/41 
f 271/36/39 272/35/40 308/35/44 307/36/43 
f 272/35/40 270/33/38 306/33/42 308/35/44 
f 274/10/38 273/9/37 309/9/41 310/10/42 
f 273/9/37 275/8/39 311/8/43 309/9/41 
f 275/8/39 276/5/40 312/5/44 311/8/43 
f 276/5/40 274/10/38 310/10/42 312/5/44 
f 278/11/39 277/12/40 313/12/44 314/11/43 
f 277/12/40 279/14/38 315/14/42 313/12/44 
f 279/14/38 280/13/37 316/13/41 315/14/42 
f 280/13/37 278/11/39 314/11/43 316/13/41 
f 282/15/39 281/16/40 317/16/44 318/15/43 
f 281/16/40 283/18/38 319/18/42 317/16/44 
f 283/18/38 284/17/37 320/17/41 319/18/42 
f 284/17/37 282/15/39 318/15/43 320/17/41 
f 286/19/39 285/20/40 321/20/44 322/19/43 
f 285/20/40 287/22/38 323/22/42 321/20/44 
f 287/22/38 288/21/37 324/21/41 323/22/42 
f 288/21/37 286/19/39 322/19/43 324/21/41 
f 290/4/42 289/1/41 7/1/5 6/4/4 
f 289/1/41 291/2/43 8/2/6 7/1/5 
f 291/2/43 292/3/44 5/3/3 8/2/6 
f 292/3/44 290/4/42 6/4/4 5/3/3 
f 294/24/43 293/23/44 49/23/3 52/24/6 
f 293/23/44 295/6/42 50/6/4 49/23/3 
f 295/6/42 296/7/41 51/7/5 50/6/4 
f 296/7/41 294/24/43 52/24/6 51/7/5 
f 298/25/42 297/26/41 59/26/5 58/25/4 
f 297/26/41 299/28/43 60/28/6 59/26/5 
f 299/28/43 300/27/44 57/27/3 60/28/6 
f 300/27/44 298/25/42 58/25/4 57/27/3 
f 302/29/42 301/30/41 67/30/5 66/29/4 
f 301/30/41 303/32/43 68/32/6 67/30/5 
f 303/32/43 304/31/44 65/31/3 68/32/6 
f 304/31/44 302/29/42 66/29/4 65/31/3 
f 306/33/42 305/34/41 75/34/5 74/33/4 
f 305/34/41 307/36/43 76/36/6 75/34/5 
f 307/36/43 308/35/44 73/35/3 76/36/6 
f 308/35/44 306/33/42 74/33/4 73/35/3 
f 310/10/42 309/9/41 81/9/5 84/10/4 
f 309/9/41 311/8/43 82/8/6 81/9/5 
f 311/8/43 312/5/44 83/5/3 82/8/6 
f 312/5/44 310/10/42 84/10/4 83/5/3 
f 314/11/43 313/12/44 91/12/3 90/11/6 
f 313/12/44 315/14/42 92/14/4 91/12/3 
f 315/14/42 316/13/41 89/13/5 92/14/4 
f 316/13/41 314/11/43 90/11/6 89/13/5 
f 318/15/43 317/16/44 99/16/3 98/15/6 
f 317/16/44 319/18/42 100/18/4 99/16/3 
f 319/18/42 320/17/41 97/17/5 100/18/4 
f 320/17/41 318/15/43 98/15/6 97/17/5 
f 322/19/43 321/20/44 107/20/3 106/19/6 
f 321/20/44 323/22/42 108/22/4 107/20/3 
f 323/22/42 324/21/41 105/21/5 108/22/4 
f 324/21/41 322/19/43 106/19/6 105/21/5 
# 322 polygons

