# 3ds Max Wavefront OBJ Exporter v0.99 - (c)2007 guruware
# File Created: 21.12.2022 14:43:48

mtllib Crate.mtl

#
# object Box001
#

v  -8.2843 1.4706 8.2843
v  8.2843 1.4706 -8.2843
v  8.2843 1.4706 8.2843
v  -8.2843 18.2843 8.2843
v  8.2843 18.2843 -8.2843
v  -8.2843 18.2843 -8.2843
v  -8.2843 1.7157 8.7745
v  8.2843 18.2843 8.7745
v  -8.2843 18.2843 8.7745
v  8.7745 1.7157 8.2843
v  8.7745 18.2843 -8.2843
v  8.7745 18.2843 8.2843
v  8.2843 1.7157 -8.7745
v  -8.2843 18.2843 -8.7745
v  8.2843 18.2843 -8.7745
v  -9.0196 1.7157 -8.2843
v  -9.0196 18.2843 8.2843
v  -9.0196 18.2843 -8.2843
v  -10.0000 0.0000 10.0000
v  -8.2843 0.0000 -8.2843
v  -8.2843 0.0000 8.2843
v  -10.0000 0.0000 -10.0000
v  8.2843 0.0000 -8.2843
v  10.0000 0.0000 -10.0000
v  8.2843 0.0000 8.2843
v  10.0000 0.0000 10.0000
v  -10.0000 20.0000 10.0000
v  8.2843 20.0000 8.2843
v  -8.2843 20.0000 8.2843
v  10.0000 20.0000 10.0000
v  8.2843 20.0000 -8.2843
v  10.0000 20.0000 -10.0000
v  -8.2843 20.0000 -8.2843
v  -10.0000 20.0000 -10.0000
v  8.2843 1.7157 10.0000
v  -8.2843 1.7157 10.0000
v  8.2843 18.2843 10.0000
v  -8.2843 18.2843 10.0000
v  10.0000 1.7157 -8.2843
v  10.0000 1.7157 8.2843
v  10.0000 18.2843 -8.2843
v  10.0000 18.2843 8.2843
v  -8.2843 1.7157 -10.0000
v  8.2843 1.7157 -10.0000
v  -8.2843 18.2843 -10.0000
v  8.2843 18.2843 -10.0000
v  -10.0000 1.7157 8.2843
v  -10.0000 1.7157 -8.2843
v  -10.0000 18.2843 8.2843
v  -10.0000 18.2843 -8.2843
v  -9.0196 1.7157 8.2843
v  8.2843 1.7157 8.7745
v  8.7745 1.7157 -8.2843
v  -8.2843 1.7157 -8.7745
v  8.2843 18.2843 8.2843
v  -8.2843 2.6961 -8.2843
v  -8.2843 2.6961 8.2843
v  8.2843 2.6961 -8.2843
v  8.2843 2.6961 8.2843
v  -8.2843 1.4706 -8.2843
# 60 vertices

vn -0.5774 -0.5774 0.5774
vn 0.5774 -0.5774 -0.5774
vn 0.5774 -0.5774 0.5774
vn 0.5774 0.5774 -0.5774
vn -0.5774 0.5774 0.5774
vn 0.5774 0.5774 0.5774
vn -0.5774 0.5774 -0.5774
vn -0.5774 -0.5774 -0.5774
vn 0.3015 -0.9045 0.3015
vn 0.3015 -0.9045 -0.3015
vn -0.3015 -0.9045 0.3015
vn -0.3015 -0.9045 -0.3015
vn -0.3015 0.9045 -0.3015
vn 0.3015 0.9045 -0.3015
vn -0.3015 0.9045 0.3015
vn 0.3015 0.9045 0.3015
vn -0.3015 0.3015 0.9045
vn 0.3015 0.3015 0.9045
vn -0.3015 -0.3015 0.9045
vn 0.3015 -0.3015 0.9045
vn 0.9045 0.3015 0.3015
vn 0.9045 0.3015 -0.3015
vn 0.9045 -0.3015 0.3015
vn 0.9045 -0.3015 -0.3015
vn 0.3015 0.3015 -0.9045
vn -0.3015 0.3015 -0.9045
vn 0.3015 -0.3015 -0.9045
vn -0.3015 -0.3015 -0.9045
vn -0.9045 0.3015 -0.3015
vn -0.9045 0.3015 0.3015
vn -0.9045 -0.3015 -0.3015
vn -0.9045 -0.3015 0.3015
vn -0.8240 0.0000 0.5665
vn 0.5665 0.0000 0.8240
vn -0.5665 0.0000 -0.8240
vn 0.8240 0.0000 -0.5665
# 36 vertex normals

vt 0.7156 0.9592 0.0000
vt 0.9505 0.7242 0.0000
vt 0.9505 0.9592 0.0000
vt 0.2100 0.4792 0.0000
vt 0.4450 0.7142 0.0000
vt 0.2100 0.7142 0.0000
vt 0.7226 0.4747 0.0000
vt 0.9576 0.7097 0.0000
vt 0.7226 0.7097 0.0000
vt 0.4645 0.7302 0.0000
vt 0.6995 0.9652 0.0000
vt 0.4645 0.9652 0.0000
vt 0.4649 0.4792 0.0000
vt 0.6998 0.7142 0.0000
vt 0.4649 0.7142 0.0000
vt 0.2112 0.7340 0.0000
vt 0.4462 0.9690 0.0000
vt 0.2112 0.9690 0.0000
vt 0.1307 0.2550 0.0000
vt 0.1414 0.1393 0.0000
vt 0.1414 0.2442 0.0000
vt 0.1307 0.1285 0.0000
vt 0.2456 0.1393 0.0000
vt 0.2564 0.1285 0.0000
vt 0.2456 0.2442 0.0000
vt 0.2564 0.2550 0.0000
vt 0.0005 0.1285 0.0000
vt 0.1155 0.1393 0.0000
vt 0.0113 0.1393 0.0000
vt 0.1262 0.1285 0.0000
vt 0.1155 0.2434 0.0000
vt 0.1262 0.2542 0.0000
vt 0.0113 0.2434 0.0000
vt 0.0005 0.2542 0.0000
vt 0.0005 0.2565 0.0000
vt 0.1155 0.2673 0.0000
vt 0.0113 0.2673 0.0000
vt 0.1262 0.2565 0.0000
vt 0.1155 0.3714 0.0000
vt 0.1262 0.3822 0.0000
vt 0.0113 0.3714 0.0000
vt 0.0005 0.3822 0.0000
vt 0.0005 0.0005 0.0000
vt 0.1155 0.0113 0.0000
vt 0.0113 0.0113 0.0000
vt 0.1262 0.0005 0.0000
vt 0.1155 0.1155 0.0000
vt 0.1262 0.1262 0.0000
vt 0.0113 0.1155 0.0000
vt 0.0005 0.1262 0.0000
vt 0.1285 0.0005 0.0000
vt 0.2434 0.0113 0.0000
vt 0.1393 0.0113 0.0000
vt 0.2542 0.0005 0.0000
vt 0.2434 0.1155 0.0000
vt 0.2542 0.1262 0.0000
vt 0.1393 0.1155 0.0000
vt 0.1285 0.1262 0.0000
vt 0.2565 0.0005 0.0000
vt 0.3714 0.0113 0.0000
vt 0.2673 0.0113 0.0000
vt 0.3822 0.0005 0.0000
vt 0.3714 0.1155 0.0000
vt 0.3822 0.1262 0.0000
vt 0.2673 0.1155 0.0000
vt 0.2565 0.1262 0.0000
vt 0.0027 0.4343 0.0000
vt 0.1068 0.4405 0.0000
vt 0.0027 0.4405 0.0000
vt 0.1068 0.4188 0.0000
vt 0.0027 0.4127 0.0000
vt 0.1068 0.4127 0.0000
vt 0.0027 0.4452 0.0000
vt 0.1068 0.4514 0.0000
vt 0.0027 0.4514 0.0000
vt 0.0027 0.4235 0.0000
vt 0.1068 0.4297 0.0000
vt 0.0027 0.4297 0.0000
vt 0.4095 0.0005 0.0000
vt 0.4018 0.1047 0.0000
vt 0.4018 0.0005 0.0000
vt 0.1068 0.4073 0.0000
vt 0.0027 0.3996 0.0000
vt 0.1068 0.3996 0.0000
vt 0.4105 0.1047 0.0000
vt 0.4182 0.0005 0.0000
vt 0.4182 0.1047 0.0000
vt 0.0027 0.3866 0.0000
vt 0.1068 0.3943 0.0000
vt 0.0027 0.3943 0.0000
vt 0.2568 0.2973 0.0000
vt 0.2491 0.4015 0.0000
vt 0.2491 0.2973 0.0000
vt 0.4008 0.0005 0.0000
vt 0.3931 0.1047 0.0000
vt 0.3931 0.0005 0.0000
vt 0.2655 0.2973 0.0000
vt 0.2578 0.4015 0.0000
vt 0.2578 0.2973 0.0000
vt 0.3845 0.1047 0.0000
vt 0.3922 0.0005 0.0000
vt 0.3922 0.1047 0.0000
vt 0.4213 0.2153 0.0000
vt 0.4290 0.1111 0.0000
vt 0.4290 0.2153 0.0000
vt 0.1068 0.4637 0.0000
vt 0.0027 0.4560 0.0000
vt 0.1068 0.4560 0.0000
vt 0.4377 0.1111 0.0000
vt 0.4300 0.2153 0.0000
vt 0.4300 0.1111 0.0000
vt 0.2586 0.2391 0.0000
vt 0.3628 0.2468 0.0000
vt 0.2586 0.2468 0.0000
vt 0.1363 0.2822 0.0000
vt 0.2405 0.2929 0.0000
vt 0.1363 0.2929 0.0000
vt 0.4517 0.2153 0.0000
vt 0.4625 0.1111 0.0000
vt 0.4625 0.2153 0.0000
vt 0.1363 0.2670 0.0000
vt 0.2405 0.2778 0.0000
vt 0.1363 0.2778 0.0000
vt 0.4387 0.2153 0.0000
vt 0.4495 0.1111 0.0000
vt 0.4495 0.2153 0.0000
vt 0.4361 0.0005 0.0000
vt 0.4192 0.1047 0.0000
vt 0.4192 0.0005 0.0000
vt 0.3840 0.1307 0.0000
vt 0.3671 0.2348 0.0000
vt 0.3671 0.1307 0.0000
vt 0.4556 0.0005 0.0000
vt 0.4387 0.1047 0.0000
vt 0.4387 0.0005 0.0000
vt 0.4752 0.0005 0.0000
vt 0.4582 0.1047 0.0000
vt 0.4582 0.0005 0.0000
vt 0.3953 0.2153 0.0000
vt 0.4030 0.1111 0.0000
vt 0.4030 0.2153 0.0000
vt 0.4040 0.2153 0.0000
vt 0.4117 0.1111 0.0000
vt 0.4117 0.2153 0.0000
vt 0.3866 0.2153 0.0000
vt 0.3943 0.1111 0.0000
vt 0.3943 0.2153 0.0000
vt 0.4127 0.2153 0.0000
vt 0.4204 0.1111 0.0000
vt 0.4204 0.2153 0.0000
vt 0.7156 0.7242 0.0000
vt 0.4450 0.4792 0.0000
vt 0.9576 0.4747 0.0000
vt 0.6995 0.7302 0.0000
vt 0.6998 0.4792 0.0000
vt 0.4462 0.7340 0.0000
vt 0.1068 0.4343 0.0000
vt 0.0027 0.4188 0.0000
vt 0.1068 0.4452 0.0000
vt 0.1068 0.4235 0.0000
vt 0.4095 0.1047 0.0000
vt 0.0027 0.4073 0.0000
vt 0.4105 0.0005 0.0000
vt 0.1068 0.3866 0.0000
vt 0.2568 0.4015 0.0000
vt 0.4008 0.1047 0.0000
vt 0.2655 0.4015 0.0000
vt 0.3845 0.0005 0.0000
vt 0.4213 0.1111 0.0000
vt 0.0027 0.4637 0.0000
vt 0.4377 0.2153 0.0000
vt 0.3628 0.2391 0.0000
vt 0.2405 0.2822 0.0000
vt 0.4517 0.1111 0.0000
vt 0.2405 0.2670 0.0000
vt 0.4387 0.1111 0.0000
vt 0.4361 0.1047 0.0000
vt 0.3840 0.2348 0.0000
vt 0.4556 0.1047 0.0000
vt 0.4752 0.1047 0.0000
vt 0.3953 0.1111 0.0000
vt 0.4040 0.1111 0.0000
vt 0.3866 0.1111 0.0000
vt 0.4127 0.1111 0.0000
# 184 texture coords

o Box001
g Box001
usemtl wire_088088225
s 2
f 1/1/1 2/2/2 3/3/3 
s 4
f 4/4/4 5/5/5 6/6/6 
s 8
f 7/7/6 8/8/1 9/9/3 
s 16
f 10/10/4 11/11/3 12/12/2 
s 32
f 13/13/7 14/14/2 15/15/8 
s 64
f 16/16/5 17/17/8 18/18/1 
s off
f 19/19/1 20/20/9 21/21/10 
f 22/22/8 23/23/11 20/20/9 
f 24/24/2 25/25/12 23/23/11 
f 26/26/3 21/21/10 25/25/12 
f 27/27/5 28/28/13 29/29/14 
f 30/30/6 31/31/15 28/28/13 
f 32/32/4 33/33/16 31/31/15 
f 34/34/7 29/29/14 33/33/16 
f 19/35/1 35/36/17 36/37/18 
f 26/38/3 37/39/19 35/36/17 
f 30/40/6 38/41/20 37/39/19 
f 27/42/5 36/37/18 38/41/20 
f 26/43/3 39/44/21 40/45/22 
f 24/46/2 41/47/23 39/44/21 
f 32/48/4 42/49/24 41/47/23 
f 30/50/6 40/45/22 42/49/24 
f 24/51/2 43/52/25 44/53/26 
f 22/54/8 45/55/27 43/52/25 
f 34/56/7 46/57/28 45/55/27 
f 32/58/4 44/53/26 46/57/28 
f 22/59/8 47/60/29 48/61/30 
f 19/62/1 49/63/31 47/60/29 
f 27/64/5 50/65/32 49/63/31 
f 34/66/7 48/61/30 50/65/32 
f 48/67/30 51/68/7 16/69/5 
f 47/70/29 17/71/8 51/72/7 
f 49/73/31 18/74/1 17/75/8 
f 50/76/32 16/77/5 18/78/1 
f 36/79/18 52/80/5 7/81/6 
f 35/82/17 8/83/1 52/84/5 
f 37/85/19 9/86/3 8/87/1 
f 38/88/20 7/89/6 9/90/3 
f 40/91/22 53/92/6 10/93/4 
f 39/94/21 11/95/3 53/96/6 
f 41/97/23 12/98/2 11/99/3 
f 42/100/24 10/101/4 12/102/2 
f 44/103/26 54/104/4 13/105/7 
f 43/106/25 14/107/2 54/108/4 
f 45/109/27 15/110/8 14/111/2 
f 46/112/28 13/113/7 15/114/8 
f 29/115/14 55/116/7 4/117/4 
f 28/118/13 5/119/5 55/120/7 
f 31/121/15 6/122/6 5/123/5 
f 33/124/16 4/125/4 6/126/6 
f 21/127/10 56/128/33 57/129/34 
f 20/130/9 58/131/35 56/132/33 
f 23/133/11 59/134/36 58/135/35 
f 25/136/12 57/137/34 59/138/36 
f 57/139/34 60/140/8 1/141/1 
f 56/142/33 2/143/2 60/144/8 
f 58/145/35 3/146/3 2/147/2 
f 59/148/36 1/149/1 3/150/3 
s 2
f 1/1/1 60/151/8 2/2/2 
s 4
f 4/4/4 55/152/7 5/5/5 
s 8
f 7/7/6 52/153/5 8/8/1 
s 16
f 10/10/4 53/154/6 11/11/3 
s 32
f 13/13/7 54/155/4 14/14/2 
s 64
f 16/16/5 51/156/7 17/17/8 
s off
f 19/19/1 22/22/8 20/20/9 
f 22/22/8 24/24/2 23/23/11 
f 24/24/2 26/26/3 25/25/12 
f 26/26/3 19/19/1 21/21/10 
f 27/27/5 30/30/6 28/28/13 
f 30/30/6 32/32/4 31/31/15 
f 32/32/4 34/34/7 33/33/16 
f 34/34/7 27/27/5 29/29/14 
f 19/35/1 26/38/3 35/36/17 
f 26/38/3 30/40/6 37/39/19 
f 30/40/6 27/42/5 38/41/20 
f 27/42/5 19/35/1 36/37/18 
f 26/43/3 24/46/2 39/44/21 
f 24/46/2 32/48/4 41/47/23 
f 32/48/4 30/50/6 42/49/24 
f 30/50/6 26/43/3 40/45/22 
f 24/51/2 22/54/8 43/52/25 
f 22/54/8 34/56/7 45/55/27 
f 34/56/7 32/58/4 46/57/28 
f 32/58/4 24/51/2 44/53/26 
f 22/59/8 19/62/1 47/60/29 
f 19/62/1 27/64/5 49/63/31 
f 27/64/5 34/66/7 50/65/32 
f 34/66/7 22/59/8 48/61/30 
f 48/67/30 47/157/29 51/68/7 
f 47/70/29 49/158/31 17/71/8 
f 49/73/31 50/159/32 18/74/1 
f 50/76/32 48/160/30 16/77/5 
f 36/79/18 35/161/17 52/80/5 
f 35/82/17 37/162/19 8/83/1 
f 37/85/19 38/163/20 9/86/3 
f 38/88/20 36/164/18 7/89/6 
f 40/91/22 39/165/21 53/92/6 
f 39/94/21 41/166/23 11/95/3 
f 41/97/23 42/167/24 12/98/2 
f 42/100/24 40/168/22 10/101/4 
f 44/103/26 43/169/25 54/104/4 
f 43/106/25 45/170/27 14/107/2 
f 45/109/27 46/171/28 15/110/8 
f 46/112/28 44/172/26 13/113/7 
f 29/115/14 28/173/13 55/116/7 
f 28/118/13 31/174/15 5/119/5 
f 31/121/15 33/175/16 6/122/6 
f 33/124/16 29/176/14 4/125/4 
f 21/127/10 20/177/9 56/128/33 
f 20/130/9 23/178/11 58/131/35 
f 23/133/11 25/179/12 59/134/36 
f 25/136/12 21/180/10 57/137/34 
f 57/139/34 56/181/33 60/140/8 
f 56/142/33 58/182/35 2/143/2 
f 58/145/35 59/183/36 3/146/3 
f 59/148/36 57/184/34 1/149/1 
# 0 polygons - 116 triangles

