# 3ds Max Wavefront OBJ Exporter v0.99 - (c)2007 guruware
# File Created: 22.12.2022 15:52:38

mtllib RTXChair.mtl

#
# object Chair
#

v  -10.0000 0.2764 10.0000
v  -10.0000 0.2764 4.9571
v  -4.8341 0.2764 10.0000
v  -10.1046 44.1098 10.1046
v  -4.7295 44.1098 10.1046
v  -10.1046 44.1098 4.8525
v  -10.0000 20.7778 10.0000
v  -4.8341 20.7778 10.0000
v  -10.0000 23.1899 10.0000
v  10.0000 20.7778 10.0000
v  10.0000 20.7778 4.9571
v  10.0000 23.1899 10.0000
v  10.0000 20.7778 -10.0000
v  5.0377 20.7778 -10.0000
v  10.0000 23.1899 -10.0000
v  -10.0000 20.7778 -10.0000
v  -10.0000 20.7778 -5.0487
v  -10.0000 23.1899 -10.0000
v  5.0377 0.2764 -10.0000
v  10.0000 0.2764 -10.0000
v  5.0377 0.2764 -5.0487
v  4.9331 44.1098 10.1046
v  10.1046 44.1098 10.1046
v  4.9331 44.1098 4.8525
v  5.0377 20.7778 10.0000
v  5.0377 23.1899 10.0000
v  -4.8341 20.7778 -10.0000
v  5.0377 23.1899 -10.0000
v  -4.8341 20.7778 -5.0487
v  -4.8341 23.1899 10.0000
v  -4.8341 23.1899 4.9571
v  -4.8341 23.1899 -10.0000
v  -10.0000 0.2764 -5.0487
v  -10.0000 0.2764 -10.0000
v  -4.8341 0.2764 -5.0487
v  -4.8341 23.1899 -5.0487
v  -10.0000 23.1899 -5.0487
v  10.0000 20.7778 -5.0487
v  10.0000 23.1899 -5.0487
v  -10.0000 20.7778 4.9571
v  5.0377 20.7778 -5.0487
v  5.0377 23.1899 -5.0487
v  5.0377 20.7778 4.9571
v  -4.8341 20.7778 4.9571
v  -10.0000 23.1899 4.9571
v  10.0000 23.1899 4.9571
v  5.0377 23.1899 4.9571
v  10.0000 0.2764 4.9571
v  10.0000 0.2764 10.0000
v  5.0377 0.2764 4.9571
v  -10.0000 18.6858 4.9571
v  -10.0000 18.6858 10.0000
v  -4.8341 18.6858 4.9571
v  -4.8341 18.6858 10.0000
v  10.0000 18.6858 -5.0487
v  10.0000 18.6858 -10.0000
v  5.0377 18.6858 -5.0487
v  5.0377 18.6858 -10.0000
v  -4.8341 18.6858 -10.0000
v  -10.0000 18.6858 -10.0000
v  -4.8341 18.6858 -5.0487
v  -10.0000 18.6858 -5.0487
v  5.0377 18.6858 10.0000
v  10.0000 18.6858 10.0000
v  5.0377 18.6858 4.9571
v  10.0000 18.6858 4.9571
v  -9.6862 17.2215 5.2709
v  -9.6862 17.2215 9.6862
v  -5.1479 17.2215 5.2709
v  -5.1479 17.2215 9.6862
v  9.6862 17.2215 -5.3625
v  9.6862 17.2215 -9.6862
v  5.3515 17.2215 -5.3625
v  5.3515 17.2215 -9.6862
v  -5.1479 17.2215 -9.6862
v  -9.6862 17.2215 -9.6862
v  -5.1479 17.2215 -5.3625
v  -9.6862 17.2215 -5.3625
v  5.3515 17.2215 9.6862
v  9.6862 17.2215 9.6862
v  5.3515 17.2215 5.2709
v  9.6862 17.2215 5.2709
v  -9.6862 7.8075 5.2709
v  -9.6862 7.8075 9.6862
v  -5.1479 7.8075 5.2709
v  -5.1479 7.8075 9.6862
v  9.6862 7.8075 -5.3625
v  9.6862 7.8075 -9.6862
v  5.3515 7.8075 -5.3625
v  5.3515 7.8075 -9.6862
v  -5.1479 7.8075 -9.6862
v  -9.6862 7.8075 -9.6862
v  -5.1479 7.8075 -5.3625
v  -9.6862 7.8075 -5.3625
v  5.3515 7.8075 9.6862
v  9.6862 7.8075 9.6862
v  5.3515 7.8075 5.2709
v  9.6862 7.8075 5.2709
v  -10.0000 5.6109 4.9571
v  -10.0000 5.6109 10.0000
v  -4.8341 5.6109 4.9571
v  -4.8341 5.6109 10.0000
v  10.0000 5.6109 -5.0487
v  10.0000 5.6109 -10.0000
v  5.0377 5.6109 -5.0487
v  5.0377 5.6109 -10.0000
v  -4.8341 5.6109 -10.0000
v  -10.0000 5.6109 -10.0000
v  -4.8341 5.6109 -5.0487
v  -10.0000 5.6109 -5.0487
v  5.0377 5.6109 10.0000
v  10.0000 5.6109 10.0000
v  5.0377 5.6109 4.9571
v  10.0000 5.6109 4.9571
v  -4.8341 0.2764 4.9571
v  10.0000 0.2764 -5.0487
v  -4.8341 0.2764 -10.0000
v  5.0377 0.2764 10.0000
v  -4.8341 26.2233 10.0000
v  -10.0000 26.2233 10.0000
v  -4.8341 26.2233 4.9571
v  -10.0000 26.2233 4.9571
v  10.0000 26.2233 4.9571
v  10.0000 26.2233 10.0000
v  5.0377 26.2233 4.9571
v  5.0377 26.2233 10.0000
v  -5.1479 27.4785 9.6862
v  -9.6862 27.4785 9.6862
v  -5.1479 27.4785 5.2709
v  -9.6862 27.4785 5.2709
v  9.6862 27.4785 5.2709
v  9.6862 27.4785 9.6862
v  5.3515 27.4785 5.2709
v  5.3515 27.4785 9.6862
v  -5.1479 38.5661 9.6862
v  -9.6862 38.5661 9.6862
v  -5.1479 38.5661 5.2709
v  -9.6862 38.5661 5.2709
v  9.6862 38.5661 5.2709
v  9.6862 38.5661 9.6862
v  5.3515 38.5661 5.2709
v  5.3515 38.5661 9.6862
v  -4.7295 39.2983 10.1046
v  -10.1046 39.2983 10.1046
v  -4.7295 39.2983 4.8525
v  -10.1046 39.2983 4.8525
v  10.1046 39.2983 4.8525
v  10.1046 39.2983 10.1046
v  4.9331 39.2983 4.8525
v  4.9331 39.2983 10.1046
v  -4.7295 44.1098 4.8525
v  10.1046 44.1098 4.8525
# 152 vertices

vn -0.5774 -0.5774 0.5774
vn -0.5774 -0.5774 -0.5774
vn 0.5774 -0.5774 0.5774
vn -0.5774 0.5774 0.5774
vn 0.0000 0.7071 0.7071
vn -0.5774 0.5774 -0.5774
vn -0.7071 0.0000 0.7071
vn 0.3015 -0.3015 0.9045
vn 0.7071 0.0000 0.7071
vn 0.9045 -0.3015 -0.3015
vn 0.7071 0.0000 -0.7071
vn -0.3015 -0.3015 -0.9045
vn 0.5774 0.5774 -0.5774
vn -0.7071 0.0000 -0.7071
vn -0.9045 -0.3015 0.3015
vn 0.5774 -0.5774 -0.5774
vn 0.5774 0.5774 0.5774
vn 0.0000 0.7071 -0.7071
vn -0.3015 -0.3015 0.9045
vn -0.3015 0.3015 0.9045
vn 0.3015 -0.3015 -0.9045
vn 0.3015 -0.9045 0.3015
vn 0.3015 0.3015 0.9045
vn 0.3015 0.9045 -0.3015
vn 0.0000 1.0000 -0.0000
vn -0.7071 0.7071 -0.0000
vn 0.9045 -0.3015 0.3015
vn 0.7071 0.7071 -0.0000
vn -0.9045 -0.3015 -0.3015
vn -0.3015 -0.9045 0.3015
vn -0.3015 -0.9045 -0.3015
vn 0.3015 -0.9045 -0.3015
vn -0.9045 0.3015 -0.3015
vn 0.9045 0.3015 -0.3015
vn -0.3015 0.9045 -0.3015
vn -0.7004 -0.1378 -0.7004
vn -0.7004 -0.1378 0.7004
vn 0.7004 -0.1378 -0.7004
vn 0.7004 -0.1378 0.7004
vn -0.6983 -0.1572 -0.6983
vn -0.6983 -0.1572 0.6983
vn 0.6983 -0.1572 -0.6983
vn 0.6983 -0.1572 0.6983
vn -0.7033 0.1043 -0.7033
vn -0.7033 0.1043 0.7033
vn 0.7033 0.1043 -0.7033
vn 0.7033 0.1043 0.7033
vn -0.7039 0.0953 -0.7039
vn -0.7039 0.0953 0.7039
vn 0.7039 0.0953 -0.7039
vn 0.7039 0.0953 0.7039
vn 0.6983 0.1576 0.6983
vn -0.6983 0.1576 0.6983
vn 0.6983 0.1576 -0.6983
vn -0.6983 0.1576 -0.6983
vn 0.6951 0.1834 0.6951
vn -0.6951 0.1834 0.6951
vn 0.6951 0.1834 -0.6951
vn -0.6951 0.1834 -0.6951
vn 0.6502 -0.3930 0.6502
vn -0.6502 -0.3930 0.6502
vn 0.6502 -0.3930 -0.6502
vn -0.6502 -0.3930 -0.6502
vn 0.1709 -0.6640 0.7279
vn -0.6759 -0.2938 0.6759
vn 0.1931 -0.5353 -0.8223
vn -0.6759 -0.2938 -0.6759
vn 0.6759 -0.2938 -0.6759
vn 0.6759 -0.2938 0.6759
vn -0.1931 -0.5353 -0.8223
vn -0.1623 -0.4501 0.8781
# 71 vertex normals

vt 1.0000 0.0000 0.0000
vt 1.0000 0.2521 0.0000
vt 0.7417 0.0000 0.0000
vt 0.0000 0.0000 0.0000
vt 0.2583 0.0000 0.0000
vt 0.0000 0.2521 0.0000
vt 0.0000 1.0000 0.0000
vt 0.2521 0.0000 0.0000
vt 0.2481 0.0000 0.0000
vt 0.2476 0.0000 0.0000
vt 0.2481 1.0000 0.0000
vt 0.2481 0.7524 0.0000
vt 0.7519 0.0000 0.0000
vt 0.7519 0.2521 0.0000
vt 0.7519 1.0000 0.0000
vt 0.7417 1.0000 0.0000
vt 0.7417 0.7524 0.0000
vt 0.2583 0.2521 0.0000
vt 0.2583 1.0000 0.0000
vt 1.0000 0.7524 0.0000
vt 1.0000 1.0000 0.0000
vt 0.2583 0.7524 0.0000
vt 0.0000 0.7524 0.0000
vt 0.7524 0.0000 0.0000
vt 0.7524 1.0000 0.0000
vt 0.7479 0.0000 0.0000
vt 0.2476 1.0000 0.0000
vt 0.7519 0.7524 0.0000
vt 0.2481 0.2521 0.0000
vt 0.7417 0.2521 0.0000
vt 0.2521 1.0000 0.0000
vt 0.7479 1.0000 0.0000
# 32 texture coords

o Chair
g Chair
usemtl wire_145028177
s 2
f 1/1/1 2/2/2 3/3/3 
s 4
f 4/4/4 5/5/5 6/6/6 
s 8
f 7/4/7 8/5/8 9/7/7 
s 16
f 10/4/9 11/8/10 12/7/9 
s 32
f 13/4/11 14/9/12 15/7/13 
s 64
f 16/4/14 17/10/15 18/7/6 
s 2
f 19/11/2 20/7/16 21/12/1 
s 4
f 22/13/5 23/1/17 24/14/18 
s 8
f 25/13/19 10/1/9 26/15/20 
s 32
f 14/9/12 27/3/21 28/11/18 
s 2
f 27/16/21 14/11/12 29/17/22 
s 4
f 30/5/23 26/13/20 31/18/24 
s 8
f 8/5/8 25/13/19 30/19/23 
s 32
f 27/3/21 16/1/14 32/16/18 
s 2
f 33/20/1 34/21/2 35/17/3 
s 4
f 36/22/25 32/19/18 37/23/26 
s 16
f 38/24/27 13/1/11 39/25/28 
s 64
f 17/10/15 40/26/29 37/27/26 
s 2
f 38/23/27 11/6/10 41/12/30 
s 4
f 39/20/28 15/21/13 42/28/25 
s 2
f 41/12/30 43/29/31 29/17/22 
s 4
f 42/28/25 28/15/18 36/22/25 
s 2
f 40/2/29 17/20/15 44/30/32 
s 4
f 31/18/24 36/22/25 45/6/33 
s 16
f 11/8/10 38/24/27 46/31/34 
s 4
f 46/2/34 39/20/28 47/14/35 
f 47/14/35 42/28/25 31/18/24 
s 64
f 40/26/29 7/1/7 45/32/33 
s 2
f 48/6/16 49/4/3 50/29/2 
f 43/29/31 25/9/19 44/30/32 
s off
f 7/1/7 51/2/36 52/1/37 
f 40/2/29 53/30/38 51/2/36 
f 44/30/32 54/3/39 53/30/38 
f 8/3/8 52/1/37 54/3/39 
f 13/7/11 55/23/39 56/7/38 
f 38/23/27 57/12/37 55/23/39 
f 41/12/30 58/11/36 57/12/37 
f 14/11/12 56/7/38 58/11/36 
f 16/21/14 59/16/38 60/21/36 
f 27/16/21 61/17/39 59/16/38 
f 29/17/22 62/20/37 61/17/39 
f 17/20/15 60/21/36 62/20/37 
f 10/4/9 63/9/37 64/4/39 
f 25/9/19 65/29/36 63/9/37 
f 43/29/31 66/6/38 65/29/36 
f 11/6/10 64/4/39 66/6/38 
f 52/1/37 67/2/40 68/1/41 
f 51/2/36 69/30/42 67/2/40 
f 53/30/38 70/3/43 69/30/42 
f 54/3/39 68/1/41 70/3/43 
f 56/7/38 71/23/43 72/7/42 
f 55/23/39 73/12/41 71/23/43 
f 57/12/37 74/11/40 73/12/41 
f 58/11/36 72/7/42 74/11/40 
f 60/21/36 75/16/42 76/21/40 
f 59/16/38 77/17/43 75/16/42 
f 61/17/39 78/20/41 77/17/43 
f 62/20/37 76/21/40 78/20/41 
f 64/4/39 79/9/41 80/4/43 
f 63/9/37 81/29/40 79/9/41 
f 65/29/36 82/6/42 81/29/40 
f 66/6/38 80/4/43 82/6/42 
f 68/1/41 83/2/44 84/1/45 
f 67/2/40 85/30/46 83/2/44 
f 69/30/42 86/3/47 85/30/46 
f 70/3/43 84/1/45 86/3/47 
f 72/7/42 87/23/47 88/7/46 
f 71/23/43 89/12/45 87/23/47 
f 73/12/41 90/11/44 89/12/45 
f 74/11/40 88/7/46 90/11/44 
f 76/21/40 91/16/46 92/21/44 
f 75/16/42 93/17/47 91/16/46 
f 77/17/43 94/20/45 93/17/47 
f 78/20/41 92/21/44 94/20/45 
f 80/4/43 95/9/45 96/4/47 
f 79/9/41 97/29/44 95/9/45 
f 81/29/40 98/6/46 97/29/44 
f 82/6/42 96/4/47 98/6/46 
f 84/1/45 99/2/48 100/1/49 
f 83/2/44 101/30/50 99/2/48 
f 85/30/46 102/3/51 101/30/50 
f 86/3/47 100/1/49 102/3/51 
f 88/7/46 103/23/51 104/7/50 
f 87/23/47 105/12/49 103/23/51 
f 89/12/45 106/11/48 105/12/49 
f 90/11/44 104/7/50 106/11/48 
f 92/21/44 107/16/50 108/21/48 
f 91/16/46 109/17/51 107/16/50 
f 93/17/47 110/20/49 109/17/51 
f 94/20/45 108/21/48 110/20/49 
f 96/4/47 111/9/49 112/4/51 
f 95/9/45 113/29/48 111/9/49 
f 97/29/44 114/6/50 113/29/48 
f 98/6/46 112/4/51 114/6/50 
f 100/1/49 2/2/2 1/1/1 
f 99/2/48 115/30/16 2/2/2 
f 101/30/50 3/3/3 115/30/16 
f 102/3/51 1/1/1 3/3/3 
f 104/7/50 116/23/3 20/7/16 
f 103/23/51 21/12/1 116/23/3 
f 105/12/49 19/11/2 21/12/1 
f 106/11/48 20/7/16 19/11/2 
f 108/21/48 117/16/16 34/21/2 
f 107/16/50 35/17/3 117/16/16 
f 109/17/51 33/20/1 35/17/3 
f 110/20/49 34/21/2 33/20/1 
f 112/4/51 118/9/1 49/4/3 
f 111/9/49 50/29/2 118/9/1 
f 113/29/48 48/6/16 50/29/2 
f 114/6/50 49/4/3 48/6/16 
f 9/4/7 119/5/52 120/4/53 
f 30/5/23 121/18/54 119/5/52 
f 31/18/24 122/6/55 121/18/54 
f 45/6/33 120/4/53 122/6/55 
f 12/1/9 123/2/54 124/1/52 
f 46/2/34 125/14/55 123/2/54 
f 47/14/35 126/13/53 125/14/55 
f 26/13/20 124/1/52 126/13/53 
f 120/4/53 127/5/56 128/4/57 
f 119/5/52 129/18/58 127/5/56 
f 121/18/54 130/6/59 129/18/58 
f 122/6/55 128/4/57 130/6/59 
f 124/1/52 131/2/58 132/1/56 
f 123/2/54 133/14/59 131/2/58 
f 125/14/55 134/13/57 133/14/59 
f 126/13/53 132/1/56 134/13/57 
f 128/4/57 135/5/60 136/4/61 
f 127/5/56 137/18/62 135/5/60 
f 129/18/58 138/6/63 137/18/62 
f 130/6/59 136/4/61 138/6/63 
f 132/1/56 139/2/62 140/1/60 
f 131/2/58 141/14/63 139/2/62 
f 133/14/59 142/13/61 141/14/63 
f 134/13/57 140/1/60 142/13/61 
f 136/4/61 143/5/64 144/4/65 
f 135/5/60 145/18/66 143/5/64 
f 137/18/62 146/6/67 145/18/66 
f 138/6/63 144/4/65 146/6/67 
f 140/1/60 147/2/68 148/1/69 
f 139/2/62 149/14/70 147/2/68 
f 141/14/63 150/13/71 149/14/70 
f 142/13/61 148/1/69 150/13/71 
f 144/4/65 5/5/5 4/4/4 
f 145/18/66 6/6/6 151/18/18 
f 146/6/67 4/4/4 6/6/6 
f 148/1/69 152/2/13 23/1/17 
f 147/2/68 24/14/18 152/2/13 
f 150/13/71 23/1/17 22/13/5 
f 5/5/5 143/5/64 150/13/71 
f 22/13/5 24/14/18 5/5/5 
f 5/5/5 150/13/71 22/13/5 
f 145/18/66 151/18/18 149/14/70 
f 143/5/64 145/18/66 149/14/70 
s 2
f 2/2/2 115/30/16 3/3/3 
s 4
f 5/5/5 151/18/18 6/6/6 
s 8
f 8/5/8 30/19/23 9/7/7 
s 16
f 11/8/10 46/31/34 12/7/9 
s 32
f 14/9/12 28/11/18 15/7/13 
s 64
f 17/10/15 37/27/26 18/7/6 
s 2
f 20/7/16 116/23/3 21/12/1 
s 4
f 23/1/17 152/2/13 24/14/18 
s 8
f 10/1/9 12/21/9 26/15/20 
s 32
f 27/3/21 32/16/18 28/11/18 
s 2
f 14/11/12 41/12/30 29/17/22 
s 4
f 26/13/20 47/14/35 31/18/24 
s 8
f 25/13/19 26/15/20 30/19/23 
s 32
f 16/1/14 18/21/6 32/16/18 
s 2
f 34/21/2 117/16/16 35/17/3 
s 4
f 32/19/18 18/7/6 37/23/26 
s 16
f 13/1/11 15/21/13 39/25/28 
s 64
f 40/26/29 45/32/33 37/27/26 
s 2
f 11/6/10 43/29/31 41/12/30 
s 4
f 15/21/13 28/15/18 42/28/25 
s 2
f 43/29/31 44/30/32 29/17/22 
s 4
f 28/15/18 32/19/18 36/22/25 
s 2
f 17/20/15 29/17/22 44/30/32 
s 4
f 36/22/25 37/23/26 45/6/33 
s 16
f 38/24/27 39/25/28 46/31/34 
s 4
f 39/20/28 42/28/25 47/14/35 
f 42/28/25 36/22/25 31/18/24 
s 64
f 7/1/7 9/21/7 45/32/33 
s 2
f 49/4/3 118/9/1 50/29/2 
f 25/9/19 8/3/8 44/30/32 
s off
f 7/1/7 40/2/29 51/2/36 
f 40/2/29 44/30/32 53/30/38 
f 44/30/32 8/3/8 54/3/39 
f 8/3/8 7/1/7 52/1/37 
f 13/7/11 38/23/27 55/23/39 
f 38/23/27 41/12/30 57/12/37 
f 41/12/30 14/11/12 58/11/36 
f 14/11/12 13/7/11 56/7/38 
f 16/21/14 27/16/21 59/16/38 
f 27/16/21 29/17/22 61/17/39 
f 29/17/22 17/20/15 62/20/37 
f 17/20/15 16/21/14 60/21/36 
f 10/4/9 25/9/19 63/9/37 
f 25/9/19 43/29/31 65/29/36 
f 43/29/31 11/6/10 66/6/38 
f 11/6/10 10/4/9 64/4/39 
f 52/1/37 51/2/36 67/2/40 
f 51/2/36 53/30/38 69/30/42 
f 53/30/38 54/3/39 70/3/43 
f 54/3/39 52/1/37 68/1/41 
f 56/7/38 55/23/39 71/23/43 
f 55/23/39 57/12/37 73/12/41 
f 57/12/37 58/11/36 74/11/40 
f 58/11/36 56/7/38 72/7/42 
f 60/21/36 59/16/38 75/16/42 
f 59/16/38 61/17/39 77/17/43 
f 61/17/39 62/20/37 78/20/41 
f 62/20/37 60/21/36 76/21/40 
f 64/4/39 63/9/37 79/9/41 
f 63/9/37 65/29/36 81/29/40 
f 65/29/36 66/6/38 82/6/42 
f 66/6/38 64/4/39 80/4/43 
f 68/1/41 67/2/40 83/2/44 
f 67/2/40 69/30/42 85/30/46 
f 69/30/42 70/3/43 86/3/47 
f 70/3/43 68/1/41 84/1/45 
f 72/7/42 71/23/43 87/23/47 
f 71/23/43 73/12/41 89/12/45 
f 73/12/41 74/11/40 90/11/44 
f 74/11/40 72/7/42 88/7/46 
f 76/21/40 75/16/42 91/16/46 
f 75/16/42 77/17/43 93/17/47 
f 77/17/43 78/20/41 94/20/45 
f 78/20/41 76/21/40 92/21/44 
f 80/4/43 79/9/41 95/9/45 
f 79/9/41 81/29/40 97/29/44 
f 81/29/40 82/6/42 98/6/46 
f 82/6/42 80/4/43 96/4/47 
f 84/1/45 83/2/44 99/2/48 
f 83/2/44 85/30/46 101/30/50 
f 85/30/46 86/3/47 102/3/51 
f 86/3/47 84/1/45 100/1/49 
f 88/7/46 87/23/47 103/23/51 
f 87/23/47 89/12/45 105/12/49 
f 89/12/45 90/11/44 106/11/48 
f 90/11/44 88/7/46 104/7/50 
f 92/21/44 91/16/46 107/16/50 
f 91/16/46 93/17/47 109/17/51 
f 93/17/47 94/20/45 110/20/49 
f 94/20/45 92/21/44 108/21/48 
f 96/4/47 95/9/45 111/9/49 
f 95/9/45 97/29/44 113/29/48 
f 97/29/44 98/6/46 114/6/50 
f 98/6/46 96/4/47 112/4/51 
f 100/1/49 99/2/48 2/2/2 
f 99/2/48 101/30/50 115/30/16 
f 101/30/50 102/3/51 3/3/3 
f 102/3/51 100/1/49 1/1/1 
f 104/7/50 103/23/51 116/23/3 
f 103/23/51 105/12/49 21/12/1 
f 105/12/49 106/11/48 19/11/2 
f 106/11/48 104/7/50 20/7/16 
f 108/21/48 107/16/50 117/16/16 
f 107/16/50 109/17/51 35/17/3 
f 109/17/51 110/20/49 33/20/1 
f 110/20/49 108/21/48 34/21/2 
f 112/4/51 111/9/49 118/9/1 
f 111/9/49 113/29/48 50/29/2 
f 113/29/48 114/6/50 48/6/16 
f 114/6/50 112/4/51 49/4/3 
f 9/4/7 30/5/23 119/5/52 
f 30/5/23 31/18/24 121/18/54 
f 31/18/24 45/6/33 122/6/55 
f 45/6/33 9/4/7 120/4/53 
f 12/1/9 46/2/34 123/2/54 
f 46/2/34 47/14/35 125/14/55 
f 47/14/35 26/13/20 126/13/53 
f 26/13/20 12/1/9 124/1/52 
f 120/4/53 119/5/52 127/5/56 
f 119/5/52 121/18/54 129/18/58 
f 121/18/54 122/6/55 130/6/59 
f 122/6/55 120/4/53 128/4/57 
f 124/1/52 123/2/54 131/2/58 
f 123/2/54 125/14/55 133/14/59 
f 125/14/55 126/13/53 134/13/57 
f 126/13/53 124/1/52 132/1/56 
f 128/4/57 127/5/56 135/5/60 
f 127/5/56 129/18/58 137/18/62 
f 129/18/58 130/6/59 138/6/63 
f 130/6/59 128/4/57 136/4/61 
f 132/1/56 131/2/58 139/2/62 
f 131/2/58 133/14/59 141/14/63 
f 133/14/59 134/13/57 142/13/61 
f 134/13/57 132/1/56 140/1/60 
f 136/4/61 135/5/60 143/5/64 
f 135/5/60 137/18/62 145/18/66 
f 137/18/62 138/6/63 146/6/67 
f 138/6/63 136/4/61 144/4/65 
f 140/1/60 139/2/62 147/2/68 
f 139/2/62 141/14/63 149/14/70 
f 141/14/63 142/13/61 150/13/71 
f 142/13/61 140/1/60 148/1/69 
f 144/4/65 143/5/64 5/5/5 
f 145/18/66 146/6/67 6/6/6 
f 146/6/67 144/4/65 4/4/4 
f 148/1/69 147/2/68 152/2/13 
f 147/2/68 149/14/70 24/14/18 
f 150/13/71 148/1/69 23/1/17 
f 143/5/64 149/14/70 150/13/71 
f 24/14/18 151/18/18 5/5/5 
f 151/18/18 24/14/18 149/14/70 
# 0 polygons - 304 triangles

