# 3ds Max Wavefront OBJ Exporter v0.99 - (c)2007 guruware
# File Created: 05.01.2023 01:46:18

mtllib StoepZijStraat.mtl

#
# object StoepRandRechtsZijStraat
#

v  2280.8901 -1551.3779 39.3701
v  239.5515 -1551.3781 39.3701
v  239.5515 -1472.6379 39.3701
v  2280.8901 -1472.6378 39.3701
v  2280.8901 -1551.3779 47.2441
v  2280.8901 -1472.6378 47.2441
v  239.5515 -1472.6379 47.2441
v  239.5515 -1551.3781 47.2441
v  2280.8901 -1472.6378 41.9948
v  2280.8901 -1551.3779 41.9948
v  2280.8901 -1472.6378 44.6194
v  2280.8901 -1551.3779 44.6194
v  239.5515 -1472.6379 41.9948
v  239.5515 -1472.6379 44.6194
v  239.5515 -1551.3781 41.9948
v  239.5515 -1551.3781 44.6194
v  2277.7383 -2101.7163 39.3701
v  236.3997 -2101.7166 39.3701
v  236.3997 -2022.9763 39.3701
v  2277.7383 -2022.9763 39.3701
v  2277.7383 -2101.7163 47.2441
v  2277.7383 -2022.9763 47.2441
v  236.3997 -2022.9763 47.2441
v  236.3997 -2101.7166 47.2441
v  2277.7383 -2022.9763 41.9948
v  2277.7383 -2101.7163 41.9948
v  2277.7383 -2022.9763 44.6194
v  2277.7383 -2101.7163 44.6194
v  236.3997 -2022.9763 41.9948
v  236.3997 -2022.9763 44.6194
v  236.3997 -2101.7166 41.9948
v  236.3997 -2101.7166 44.6194
v  2280.6909 -2020.4115 41.9918
v  2280.6909 -2023.0361 47.2441
v  2280.6909 -2023.0361 39.3701
v  2280.6909 -2015.1621 39.3613
v  2280.6909 -2017.7869 41.9889
v  2280.6909 -2020.4115 44.6165
v  312.1871 -2023.0360 47.2441
v  312.1871 -2023.0360 39.3701
v  312.1871 -2015.1620 39.3613
v  312.1871 -2017.7867 41.9889
v  312.1871 -2020.4114 44.6165
v  312.1871 -2020.4114 41.9918
v  312.1874 -1553.9988 41.9918
v  312.1874 -1551.3741 47.2441
v  312.1874 -1551.3741 39.3701
v  312.1874 -1559.2482 39.3613
v  312.1874 -1556.6235 41.9889
v  312.1874 -1553.9988 44.6165
v  2280.6914 -1551.3740 47.2441
v  2280.6914 -1551.3740 39.3701
v  2280.6914 -1559.2480 39.3613
v  2280.6914 -1556.6233 41.9889
v  2280.6914 -1553.9987 44.6165
v  2280.6914 -1553.9987 41.9918
# 56 vertices

vn 0.0000 0.0000 -1.0000
vn 0.0000 0.0000 1.0000
vn 1.0000 0.0000 0.0000
vn -0.0000 1.0000 0.0000
vn -1.0000 -0.0000 0.0000
vn 0.0000 -1.0000 0.0000
vn -0.0000 -1.0000 0.0000
vn -0.0000 -0.0011 -1.0000
vn 0.0000 0.7075 0.7067
vn -0.0000 0.0011 -1.0000
vn 0.0000 -0.7075 0.7067
# 11 vertex normals

vt 0.0388 0.0065 0.0000
vt 0.1682 0.0065 0.0000
vt 0.1682 0.0115 0.0000
vt 0.0388 0.0115 0.0000
vt 0.2993 0.0065 0.0000
vt 0.2993 0.0115 0.0000
vt 0.1699 0.0115 0.0000
vt 0.1699 0.0065 0.0000
vt 0.0087 0.9847 0.0000
vt 0.0087 0.9897 0.0000
vt 0.0085 0.9897 0.0000
vt 0.0085 0.9847 0.0000
vt 0.0083 0.9897 0.0000
vt 0.0083 0.9847 0.0000
vt 0.0082 0.9897 0.0000
vt 0.0082 0.9847 0.0000
vt 0.0146 0.1325 0.0000
vt 0.0146 0.2618 0.0000
vt 0.0145 0.2618 0.0000
vt 0.0145 0.1325 0.0000
vt 0.0143 0.2618 0.0000
vt 0.0143 0.1325 0.0000
vt 0.0141 0.2618 0.0000
vt 0.0141 0.1325 0.0000
vt 0.0095 0.9779 0.0000
vt 0.0095 0.9829 0.0000
vt 0.0093 0.9829 0.0000
vt 0.0093 0.9779 0.0000
vt 0.0092 0.9829 0.0000
vt 0.0092 0.9779 0.0000
vt 0.0090 0.9829 0.0000
vt 0.0090 0.9779 0.0000
vt 0.0146 0.0014 0.0000
vt 0.0146 0.1307 0.0000
vt 0.0145 0.1307 0.0000
vt 0.0145 0.0014 0.0000
vt 0.0143 0.1307 0.0000
vt 0.0143 0.0014 0.0000
vt 0.0141 0.1307 0.0000
vt 0.0141 0.0014 0.0000
vt 0.4321 0.0065 0.0000
vt 0.5615 0.0065 0.0000
vt 0.5615 0.0115 0.0000
vt 0.4321 0.0115 0.0000
vt 0.4304 0.0065 0.0000
vt 0.4304 0.0115 0.0000
vt 0.3010 0.0115 0.0000
vt 0.3010 0.0065 0.0000
vt 0.0070 0.9881 0.0000
vt 0.0070 0.9931 0.0000
vt 0.0068 0.9931 0.0000
vt 0.0068 0.9881 0.0000
vt 0.0066 0.9931 0.0000
vt 0.0066 0.9881 0.0000
vt 0.0065 0.9931 0.0000
vt 0.0065 0.9881 0.0000
vt 0.0138 0.0014 0.0000
vt 0.0138 0.1307 0.0000
vt 0.0136 0.1307 0.0000
vt 0.0136 0.0014 0.0000
vt 0.0134 0.1307 0.0000
vt 0.0134 0.0014 0.0000
vt 0.0133 0.1307 0.0000
vt 0.0133 0.0014 0.0000
vt 0.0070 0.9813 0.0000
vt 0.0070 0.9863 0.0000
vt 0.0068 0.9863 0.0000
vt 0.0068 0.9813 0.0000
vt 0.0066 0.9863 0.0000
vt 0.0066 0.9813 0.0000
vt 0.0065 0.9863 0.0000
vt 0.0065 0.9813 0.0000
vt 0.0138 0.1325 0.0000
vt 0.0138 0.2618 0.0000
vt 0.0136 0.2618 0.0000
vt 0.0136 0.1325 0.0000
vt 0.0134 0.2618 0.0000
vt 0.0134 0.1325 0.0000
vt 0.0133 0.2618 0.0000
vt 0.0133 0.1325 0.0000
vt 0.0093 0.9900 0.0000
vt 0.0090 0.9898 0.0000
vt 0.0095 0.9898 0.0000
vt 0.0095 0.9903 0.0000
vt 0.0093 0.9901 0.0000
vt 0.0092 0.9900 0.0000
vt 0.0133 0.5152 0.0000
vt 0.0133 0.3904 0.0000
vt 0.0138 0.3904 0.0000
vt 0.0138 0.5152 0.0000
vt 0.0141 0.6420 0.0000
vt 0.0141 0.5173 0.0000
vt 0.0146 0.5173 0.0000
vt 0.0146 0.6420 0.0000
vt 0.0141 0.5152 0.0000
vt 0.0141 0.3904 0.0000
vt 0.0143 0.3904 0.0000
vt 0.0143 0.5152 0.0000
vt 0.0145 0.3904 0.0000
vt 0.0145 0.5152 0.0000
vt 0.0146 0.3904 0.0000
vt 0.0146 0.5152 0.0000
vt 0.0065 0.9979 0.0000
vt 0.0068 0.9978 0.0000
vt 0.0070 0.9979 0.0000
vt 0.0070 0.9975 0.0000
vt 0.0068 0.9976 0.0000
vt 0.0066 0.9978 0.0000
vt 0.0085 0.9976 0.0000
vt 0.0082 0.9975 0.0000
vt 0.0087 0.9975 0.0000
vt 0.0087 0.9979 0.0000
vt 0.0085 0.9978 0.0000
vt 0.0083 0.9976 0.0000
vt 0.0133 0.3883 0.0000
vt 0.0133 0.2636 0.0000
vt 0.0138 0.2636 0.0000
vt 0.0138 0.3883 0.0000
vt 0.0133 0.6420 0.0000
vt 0.0133 0.5173 0.0000
vt 0.0138 0.5173 0.0000
vt 0.0138 0.6420 0.0000
vt 0.0141 0.3883 0.0000
vt 0.0141 0.2636 0.0000
vt 0.0143 0.2636 0.0000
vt 0.0143 0.3883 0.0000
vt 0.0145 0.2636 0.0000
vt 0.0145 0.3883 0.0000
vt 0.0146 0.2636 0.0000
vt 0.0146 0.3883 0.0000
vt 0.0090 0.9954 0.0000
vt 0.0093 0.9952 0.0000
vt 0.0095 0.9954 0.0000
vt 0.0095 0.9949 0.0000
vt 0.0093 0.9951 0.0000
vt 0.0092 0.9952 0.0000
# 136 texture coords

o StoepRandRechtsZijStraat
g StoepRandRechtsZijStraat
usemtl wire_154215229
s 2
f 1/1/1 2/2/1 3/3/1 
f 3/3/1 4/4/1 1/1/1 
s 4
f 5/5/2 6/6/2 7/7/2 
f 7/7/2 8/8/2 5/5/2 
s 8
f 1/9/3 4/10/3 9/11/3 
f 9/11/3 10/12/3 1/9/3 
f 10/12/3 9/11/3 11/13/3 
f 11/13/3 12/14/3 10/12/3 
f 12/14/3 11/13/3 6/15/3 
f 6/15/3 5/16/3 12/14/3 
s 16
f 4/17/4 3/18/4 13/19/4 
f 13/19/4 9/20/4 4/17/4 
f 9/20/4 13/19/4 14/21/4 
f 14/21/4 11/22/4 9/20/4 
f 11/22/4 14/21/4 7/23/4 
f 7/23/4 6/24/4 11/22/4 
s 32
f 3/25/5 2/26/5 15/27/5 
f 15/27/5 13/28/5 3/25/5 
f 13/28/5 15/27/5 16/29/5 
f 16/29/5 14/30/5 13/28/5 
f 14/30/5 16/29/5 8/31/5 
f 8/31/5 7/32/5 14/30/5 
s 64
f 2/33/6 1/34/6 10/35/6 
f 10/35/6 15/36/6 2/33/6 
f 15/36/6 10/35/6 12/37/6 
f 12/37/6 16/38/6 15/36/6 
f 16/38/6 12/37/6 5/39/6 
f 5/39/6 8/40/6 16/38/6 
s 2
f 17/41/1 18/42/1 19/43/1 
f 19/43/1 20/44/1 17/41/1 
s 4
f 21/45/2 22/46/2 23/47/2 
f 23/47/2 24/48/2 21/45/2 
s 8
f 17/49/3 20/50/3 25/51/3 
f 25/51/3 26/52/3 17/49/3 
f 26/52/3 25/51/3 27/53/3 
f 27/53/3 28/54/3 26/52/3 
f 28/54/3 27/53/3 22/55/3 
f 22/55/3 21/56/3 28/54/3 
s 16
f 20/57/4 19/58/4 29/59/4 
f 29/59/4 25/60/4 20/57/4 
f 25/60/4 29/59/4 30/61/4 
f 30/61/4 27/62/4 25/60/4 
f 27/62/4 30/61/4 23/63/4 
f 23/63/4 22/64/4 27/62/4 
s 32
f 19/65/5 18/66/5 31/67/5 
f 31/67/5 29/68/5 19/65/5 
f 29/68/5 31/67/5 32/69/5 
f 32/69/5 30/70/5 29/68/5 
f 30/70/5 32/69/5 24/71/5 
f 24/71/5 23/72/5 30/70/5 
s 64
f 18/73/6 17/74/6 26/75/6 
f 26/75/6 31/76/6 18/73/6 
f 31/76/6 26/75/6 28/77/6 
f 28/77/6 32/78/6 31/76/6 
f 32/78/6 28/77/6 21/79/6 
f 21/79/6 24/80/6 32/78/6 
s 1
f 33/81/3 34/82/3 35/83/3 
f 33/81/3 35/83/3 36/84/3 
f 33/81/3 36/84/3 37/85/3 
f 33/81/3 37/85/3 38/86/3 
f 33/81/3 38/86/3 34/82/3 
s 2
f 34/87/7 39/88/7 40/89/7 
f 34/87/7 40/89/7 35/90/7 
s 4
f 35/91/8 40/92/8 41/93/8 
f 35/91/8 41/93/8 36/94/8 
s 8
f 36/95/9 41/96/9 42/97/9 
f 36/95/9 42/97/9 37/98/9 
f 37/98/9 42/97/9 43/99/9 
f 37/98/9 43/99/9 38/100/9 
f 38/100/9 43/99/9 39/101/9 
f 38/100/9 39/101/9 34/102/9 
s 1
f 39/103/5 44/104/5 40/105/5 
f 40/105/5 44/104/5 41/106/5 
f 41/106/5 44/104/5 42/107/5 
f 42/107/5 44/104/5 43/108/5 
f 43/108/5 44/104/5 39/103/5 
f 45/109/5 46/110/5 47/111/5 
f 45/109/5 47/111/5 48/112/5 
f 45/109/5 48/112/5 49/113/5 
f 45/109/5 49/113/5 50/114/5 
f 45/109/5 50/114/5 46/110/5 
s 2
f 46/115/4 51/116/4 52/117/4 
f 46/115/4 52/117/4 47/118/4 
s 4
f 47/119/10 52/120/10 53/121/10 
f 47/119/10 53/121/10 48/122/10 
s 8
f 48/123/11 53/124/11 54/125/11 
f 48/123/11 54/125/11 49/126/11 
f 49/126/11 54/125/11 55/127/11 
f 49/126/11 55/127/11 50/128/11 
f 50/128/11 55/127/11 51/129/11 
f 50/128/11 51/129/11 46/130/11 
s 1
f 51/131/3 56/132/3 52/133/3 
f 52/133/3 56/132/3 53/134/3 
f 53/134/3 56/132/3 54/135/3 
f 54/135/3 56/132/3 55/136/3 
f 55/136/3 56/132/3 51/131/3 
# 96 faces

