# 3ds Max Wavefront OBJ Exporter v0.99 - (c)2007 guruware
# File Created: 05.01.2023 01:43:17

mtllib StoepMainStreet.mtl

#
# object StoepRechts2eDeel
#

v  236.2205 -7902.8545 39.3701
v  236.2205 -2077.4602 39.3701
v  314.9606 -2077.4602 39.3701
v  314.9606 -7902.8545 39.3701
v  236.2205 -7902.8545 47.2441
v  314.9606 -7902.8545 47.2441
v  314.9606 -2077.4602 47.2441
v  236.2205 -2077.4602 47.2441
v  314.9606 -7902.8545 41.9948
v  236.2205 -7902.8545 41.9948
v  314.9606 -7902.8545 44.6194
v  236.2205 -7902.8545 44.6194
v  314.9606 -2077.4602 41.9948
v  314.9606 -2077.4602 44.6194
v  236.2205 -2077.4602 41.9948
v  236.2205 -2077.4602 44.6194
v  236.2206 -1476.3774 39.3701
v  236.2206 7874.0166 39.3701
v  314.9608 7874.0166 39.3701
v  314.9608 -1476.3774 39.3701
v  236.2206 -1476.3774 47.2441
v  314.9608 -1476.3774 47.2441
v  314.9608 7874.0166 47.2441
v  236.2206 7874.0166 47.2441
v  314.9608 -1476.3774 41.9948
v  236.2206 -1476.3774 41.9948
v  314.9608 -1476.3774 44.6194
v  236.2206 -1476.3774 44.6194
v  314.9608 7874.0166 41.9948
v  314.9608 7874.0166 44.6194
v  236.2206 7874.0166 41.9948
v  236.2206 7874.0166 44.6194
v  -314.9606 -7874.0161 39.3701
v  -314.9606 7874.0146 39.3701
v  -236.2205 7874.0146 39.3701
v  -236.2205 -7874.0161 39.3701
v  -314.9606 -7874.0161 47.2441
v  -236.2205 -7874.0161 47.2441
v  -236.2205 7874.0146 47.2441
v  -314.9606 7874.0146 47.2441
v  -236.2205 -7874.0161 41.9948
v  -314.9606 -7874.0161 41.9948
v  -236.2205 -7874.0161 44.6194
v  -314.9606 -7874.0161 44.6194
v  -236.2205 7874.0146 41.9948
v  -236.2205 7874.0146 44.6194
v  -314.9606 7874.0146 41.9948
v  -314.9606 7874.0146 44.6194
v  -233.5965 -7874.0166 41.9911
v  -236.2212 -7874.0166 47.2434
v  -236.2212 -7874.0166 39.3694
v  -228.3472 -7874.0166 39.3606
v  -230.9718 -7874.0166 41.9882
v  -233.5965 -7874.0166 44.6158
v  -228.3465 7874.0146 39.3613
v  -230.9712 7874.0146 41.9889
v  -233.5958 7874.0146 44.6165
v  -233.5958 7874.0146 41.9918
v  233.5970 7874.0166 41.9922
v  236.2217 7874.0166 47.2445
v  236.2217 7874.0166 39.3705
v  228.3477 7874.0166 39.3617
v  230.9724 7874.0166 41.9893
v  233.5970 7874.0166 44.6169
v  236.2205 -1476.3774 47.2441
v  236.2205 -1476.3774 39.3701
v  228.3465 -1476.3774 39.3613
v  230.9711 -1476.3774 41.9889
v  233.5958 -1476.3774 44.6165
v  233.5958 -1476.3774 41.9918
v  233.5966 -2106.2988 41.9921
v  236.2212 -2106.2988 47.2443
v  236.2212 -2106.2988 39.3703
v  228.3472 -2106.2988 39.3616
v  230.9719 -2106.2988 41.9892
v  233.5966 -2106.2988 44.6168
v  236.2205 -7874.0156 47.2441
v  236.2205 -7874.0156 39.3701
v  228.3465 -7874.0156 39.3613
v  230.9711 -7874.0156 41.9889
v  233.5958 -7874.0156 44.6165
v  233.5958 -7874.0156 41.9918
# 82 vertices

vn 0.0000 0.0000 -1.0000
vn 0.0000 0.0000 1.0000
vn 0.0000 -1.0000 0.0000
vn 1.0000 0.0000 0.0000
vn 0.0000 1.0000 0.0000
vn -1.0000 0.0000 0.0000
vn -0.0011 0.0000 -1.0000
vn 0.7075 -0.0000 0.7067
vn 1.0000 -0.0000 0.0000
vn 0.0011 0.0000 -1.0000
vn -0.7075 0.0000 0.7067
# 11 vertex normals

vt 0.0320 0.3765 0.0000
vt 0.0320 0.0073 0.0000
vt 0.0370 0.0073 0.0000
vt 0.0370 0.3765 0.0000
vt 0.9887 0.0005 0.0000
vt 0.9887 0.0055 0.0000
vt 0.6194 0.0055 0.0000
vt 0.6194 0.0005 0.0000
vt 0.0070 0.9745 0.0000
vt 0.0070 0.9795 0.0000
vt 0.0068 0.9795 0.0000
vt 0.0068 0.9745 0.0000
vt 0.0066 0.9795 0.0000
vt 0.0066 0.9745 0.0000
vt 0.0065 0.9795 0.0000
vt 0.0065 0.9745 0.0000
vt 0.0087 0.5965 0.0000
vt 0.0087 0.9657 0.0000
vt 0.0085 0.9657 0.0000
vt 0.0085 0.5965 0.0000
vt 0.0083 0.9657 0.0000
vt 0.0083 0.5965 0.0000
vt 0.0082 0.9657 0.0000
vt 0.0082 0.5965 0.0000
vt 0.0070 0.9677 0.0000
vt 0.0070 0.9726 0.0000
vt 0.0068 0.9726 0.0000
vt 0.0068 0.9677 0.0000
vt 0.0066 0.9726 0.0000
vt 0.0066 0.9677 0.0000
vt 0.0065 0.9726 0.0000
vt 0.0065 0.9677 0.0000
vt 0.0070 0.5965 0.0000
vt 0.0070 0.9657 0.0000
vt 0.0068 0.9657 0.0000
vt 0.0068 0.5965 0.0000
vt 0.0066 0.9657 0.0000
vt 0.0066 0.5965 0.0000
vt 0.0065 0.9657 0.0000
vt 0.0065 0.5965 0.0000
vt 0.0260 0.0005 0.0000
vt 0.6187 0.0005 0.0000
vt 0.6187 0.0055 0.0000
vt 0.0260 0.0055 0.0000
vt 0.0260 0.0073 0.0000
vt 0.0310 0.0073 0.0000
vt 0.0310 0.6000 0.0000
vt 0.0260 0.6000 0.0000
vt 0.0095 0.9642 0.0000
vt 0.0095 0.9692 0.0000
vt 0.0093 0.9692 0.0000
vt 0.0093 0.9642 0.0000
vt 0.0092 0.9692 0.0000
vt 0.0092 0.9642 0.0000
vt 0.0090 0.9692 0.0000
vt 0.0090 0.9642 0.0000
vt 0.0087 0.0014 0.0000
vt 0.0087 0.5940 0.0000
vt 0.0085 0.5940 0.0000
vt 0.0085 0.0014 0.0000
vt 0.0083 0.5940 0.0000
vt 0.0083 0.0014 0.0000
vt 0.0082 0.5940 0.0000
vt 0.0082 0.0014 0.0000
vt 0.0087 0.9711 0.0000
vt 0.0087 0.9760 0.0000
vt 0.0085 0.9760 0.0000
vt 0.0085 0.9711 0.0000
vt 0.0083 0.9760 0.0000
vt 0.0083 0.9711 0.0000
vt 0.0082 0.9760 0.0000
vt 0.0082 0.9711 0.0000
vt 0.0070 0.0014 0.0000
vt 0.0070 0.5940 0.0000
vt 0.0068 0.5940 0.0000
vt 0.0068 0.0014 0.0000
vt 0.0066 0.5940 0.0000
vt 0.0066 0.0014 0.0000
vt 0.0065 0.5940 0.0000
vt 0.0065 0.0014 0.0000
vt 0.0201 0.9995 0.0000
vt 0.0201 0.0014 0.0000
vt 0.0251 0.0014 0.0000
vt 0.0251 0.9995 0.0000
vt 0.0005 0.0014 0.0000
vt 0.0055 0.0014 0.0000
vt 0.0055 0.9995 0.0000
vt 0.0005 0.9995 0.0000
vt 0.0095 0.9711 0.0000
vt 0.0095 0.9760 0.0000
vt 0.0093 0.9760 0.0000
vt 0.0093 0.9711 0.0000
vt 0.0092 0.9760 0.0000
vt 0.0092 0.9711 0.0000
vt 0.0090 0.9760 0.0000
vt 0.0090 0.9711 0.0000
vt 0.0104 0.0014 0.0000
vt 0.0104 0.9995 0.0000
vt 0.0102 0.9995 0.0000
vt 0.0102 0.0014 0.0000
vt 0.0100 0.9995 0.0000
vt 0.0100 0.0014 0.0000
vt 0.0099 0.9995 0.0000
vt 0.0099 0.0014 0.0000
vt 0.0087 0.9779 0.0000
vt 0.0087 0.9829 0.0000
vt 0.0085 0.9829 0.0000
vt 0.0085 0.9779 0.0000
vt 0.0083 0.9829 0.0000
vt 0.0083 0.9779 0.0000
vt 0.0082 0.9829 0.0000
vt 0.0082 0.9779 0.0000
vt 0.0078 0.0014 0.0000
vt 0.0078 0.9995 0.0000
vt 0.0076 0.9995 0.0000
vt 0.0076 0.0014 0.0000
vt 0.0075 0.9995 0.0000
vt 0.0075 0.0014 0.0000
vt 0.0073 0.9995 0.0000
vt 0.0073 0.0014 0.0000
vt 0.0093 0.9848 0.0000
vt 0.0090 0.9847 0.0000
vt 0.0095 0.9847 0.0000
vt 0.0095 0.9852 0.0000
vt 0.0093 0.9850 0.0000
vt 0.0092 0.9848 0.0000
vt 0.0124 0.9995 0.0000
vt 0.0124 0.0014 0.0000
vt 0.0129 0.0014 0.0000
vt 0.0129 0.9995 0.0000
vt 0.0175 0.9995 0.0000
vt 0.0175 0.0014 0.0000
vt 0.0180 0.0014 0.0000
vt 0.0180 0.9995 0.0000
vt 0.0150 0.9995 0.0000
vt 0.0150 0.0014 0.0000
vt 0.0151 0.0014 0.0000
vt 0.0151 0.9995 0.0000
vt 0.0153 0.0014 0.0000
vt 0.0153 0.9995 0.0000
vt 0.0155 0.0014 0.0000
vt 0.0155 0.9995 0.0000
vt 0.0090 0.9877 0.0000
vt 0.0093 0.9876 0.0000
vt 0.0095 0.9877 0.0000
vt 0.0095 0.9872 0.0000
vt 0.0093 0.9874 0.0000
vt 0.0092 0.9876 0.0000
vt 0.0068 0.9951 0.0000
vt 0.0065 0.9949 0.0000
vt 0.0070 0.9949 0.0000
vt 0.0070 0.9954 0.0000
vt 0.0068 0.9952 0.0000
vt 0.0066 0.9951 0.0000
vt 0.0090 0.5940 0.0000
vt 0.0090 0.0014 0.0000
vt 0.0095 0.0014 0.0000
vt 0.0095 0.5940 0.0000
vt 0.0116 0.5940 0.0000
vt 0.0116 0.0014 0.0000
vt 0.0121 0.0014 0.0000
vt 0.0121 0.5940 0.0000
vt 0.0107 0.5940 0.0000
vt 0.0107 0.0014 0.0000
vt 0.0109 0.0014 0.0000
vt 0.0109 0.5940 0.0000
vt 0.0110 0.0014 0.0000
vt 0.0110 0.5940 0.0000
vt 0.0112 0.0014 0.0000
vt 0.0112 0.5940 0.0000
vt 0.0082 0.9954 0.0000
vt 0.0085 0.9952 0.0000
vt 0.0087 0.9954 0.0000
vt 0.0087 0.9949 0.0000
vt 0.0085 0.9951 0.0000
vt 0.0083 0.9952 0.0000
vt 0.0093 0.9925 0.0000
vt 0.0090 0.9923 0.0000
vt 0.0095 0.9923 0.0000
vt 0.0095 0.9928 0.0000
vt 0.0093 0.9927 0.0000
vt 0.0092 0.9925 0.0000
vt 0.0116 0.9620 0.0000
vt 0.0116 0.5965 0.0000
vt 0.0121 0.5965 0.0000
vt 0.0121 0.9620 0.0000
vt 0.0107 0.9620 0.0000
vt 0.0107 0.5965 0.0000
vt 0.0112 0.5965 0.0000
vt 0.0112 0.9620 0.0000
vt 0.0090 0.9620 0.0000
vt 0.0090 0.5965 0.0000
vt 0.0092 0.5965 0.0000
vt 0.0092 0.9620 0.0000
vt 0.0093 0.5965 0.0000
vt 0.0093 0.9620 0.0000
vt 0.0095 0.5965 0.0000
vt 0.0095 0.9620 0.0000
vt 0.0082 0.9928 0.0000
vt 0.0085 0.9927 0.0000
vt 0.0087 0.9928 0.0000
vt 0.0087 0.9923 0.0000
vt 0.0085 0.9925 0.0000
vt 0.0083 0.9927 0.0000
# 204 texture coords

o StoepRechts2eDeel
g StoepRechts2eDeel
usemtl wire_154215229
s 2
f 1/1/1 2/2/1 3/3/1 
f 3/3/1 4/4/1 1/1/1 
s 4
f 5/5/2 6/6/2 7/7/2 
f 7/7/2 8/8/2 5/5/2 
s 8
f 1/9/3 4/10/3 9/11/3 
f 9/11/3 10/12/3 1/9/3 
f 10/12/3 9/11/3 11/13/3 
f 11/13/3 12/14/3 10/12/3 
f 12/14/3 11/13/3 6/15/3 
f 6/15/3 5/16/3 12/14/3 
s 16
f 4/17/4 3/18/4 13/19/4 
f 13/19/4 9/20/4 4/17/4 
f 9/20/4 13/19/4 14/21/4 
f 14/21/4 11/22/4 9/20/4 
f 11/22/4 14/21/4 7/23/4 
f 7/23/4 6/24/4 11/22/4 
s 32
f 3/25/5 2/26/5 15/27/5 
f 15/27/5 13/28/5 3/25/5 
f 13/28/5 15/27/5 16/29/5 
f 16/29/5 14/30/5 13/28/5 
f 14/30/5 16/29/5 8/31/5 
f 8/31/5 7/32/5 14/30/5 
s 64
f 2/33/6 1/34/6 10/35/6 
f 10/35/6 15/36/6 2/33/6 
f 15/36/6 10/35/6 12/37/6 
f 12/37/6 16/38/6 15/36/6 
f 16/38/6 12/37/6 5/39/6 
f 5/39/6 8/40/6 16/38/6 
s 2
f 17/41/1 18/42/1 19/43/1 
f 19/43/1 20/44/1 17/41/1 
s 4
f 21/45/2 22/46/2 23/47/2 
f 23/47/2 24/48/2 21/45/2 
s 8
f 17/49/3 20/50/3 25/51/3 
f 25/51/3 26/52/3 17/49/3 
f 26/52/3 25/51/3 27/53/3 
f 27/53/3 28/54/3 26/52/3 
f 28/54/3 27/53/3 22/55/3 
f 22/55/3 21/56/3 28/54/3 
s 16
f 20/57/4 19/58/4 29/59/4 
f 29/59/4 25/60/4 20/57/4 
f 25/60/4 29/59/4 30/61/4 
f 30/61/4 27/62/4 25/60/4 
f 27/62/4 30/61/4 23/63/4 
f 23/63/4 22/64/4 27/62/4 
s 32
f 19/65/5 18/66/5 31/67/5 
f 31/67/5 29/68/5 19/65/5 
f 29/68/5 31/67/5 32/69/5 
f 32/69/5 30/70/5 29/68/5 
f 30/70/5 32/69/5 24/71/5 
f 24/71/5 23/72/5 30/70/5 
s 64
f 18/73/6 17/74/6 26/75/6 
f 26/75/6 31/76/6 18/73/6 
f 31/76/6 26/75/6 28/77/6 
f 28/77/6 32/78/6 31/76/6 
f 32/78/6 28/77/6 21/79/6 
f 21/79/6 24/80/6 32/78/6 
s 2
f 33/81/1 34/82/1 35/83/1 
f 35/83/1 36/84/1 33/81/1 
s 4
f 37/85/2 38/86/2 39/87/2 
f 39/87/2 40/88/2 37/85/2 
s 8
f 33/89/3 36/90/3 41/91/3 
f 41/91/3 42/92/3 33/89/3 
f 42/92/3 41/91/3 43/93/3 
f 43/93/3 44/94/3 42/92/3 
f 44/94/3 43/93/3 38/95/3 
f 38/95/3 37/96/3 44/94/3 
s 16
f 36/97/4 35/98/4 45/99/4 
f 45/99/4 41/100/4 36/97/4 
f 41/100/4 45/99/4 46/101/4 
f 46/101/4 43/102/4 41/100/4 
f 43/102/4 46/101/4 39/103/4 
f 39/103/4 38/104/4 43/102/4 
s 32
f 35/105/5 34/106/5 47/107/5 
f 47/107/5 45/108/5 35/105/5 
f 45/108/5 47/107/5 48/109/5 
f 48/109/5 46/110/5 45/108/5 
f 46/110/5 48/109/5 40/111/5 
f 40/111/5 39/112/5 46/110/5 
s 64
f 34/113/6 33/114/6 42/115/6 
f 42/115/6 47/116/6 34/113/6 
f 47/116/6 42/115/6 44/117/6 
f 44/117/6 48/118/6 47/116/6 
f 48/118/6 44/117/6 37/119/6 
f 37/119/6 40/120/6 48/118/6 
s 1
f 49/121/3 50/122/3 51/123/3 
f 49/121/3 51/123/3 52/124/3 
f 49/121/3 52/124/3 53/125/3 
f 49/121/3 53/125/3 54/126/3 
f 49/121/3 54/126/3 50/122/3 
s 2
f 50/127/6 39/128/6 35/129/6 
f 50/127/6 35/129/6 51/130/6 
s 4
f 51/131/7 35/132/7 55/133/7 
f 51/131/7 55/133/7 52/134/7 
s 8
f 52/135/8 55/136/8 56/137/8 
f 52/135/8 56/137/8 53/138/8 
f 53/138/8 56/137/8 57/139/8 
f 53/138/8 57/139/8 54/140/8 
f 54/140/8 57/139/8 39/141/8 
f 54/140/8 39/141/8 50/142/8 
s 1
f 39/143/5 58/144/5 35/145/5 
f 35/145/5 58/144/5 55/146/5 
f 55/146/5 58/144/5 56/147/5 
f 56/147/5 58/144/5 57/148/5 
f 57/148/5 58/144/5 39/143/5 
f 59/149/5 60/150/5 61/151/5 
f 59/149/5 61/151/5 62/152/5 
f 59/149/5 62/152/5 63/153/5 
f 59/149/5 63/153/5 64/154/5 
f 59/149/5 64/154/5 60/150/5 
s 2
f 60/155/9 65/156/9 66/157/9 
f 60/155/9 66/157/9 61/158/9 
s 4
f 61/159/10 66/160/10 67/161/10 
f 61/159/10 67/161/10 62/162/10 
s 8
f 62/163/11 67/164/11 68/165/11 
f 62/163/11 68/165/11 63/166/11 
f 63/166/11 68/165/11 69/167/11 
f 63/166/11 69/167/11 64/168/11 
f 64/168/11 69/167/11 65/169/11 
f 64/168/11 65/169/11 60/170/11 
s 1
f 65/171/3 70/172/3 66/173/3 
f 66/173/3 70/172/3 67/174/3 
f 67/174/3 70/172/3 68/175/3 
f 68/175/3 70/172/3 69/176/3 
f 69/176/3 70/172/3 65/171/3 
f 71/177/5 72/178/5 73/179/5 
f 71/177/5 73/179/5 74/180/5 
f 71/177/5 74/180/5 75/181/5 
f 71/177/5 75/181/5 76/182/5 
f 71/177/5 76/182/5 72/178/5 
s 2
f 72/183/9 77/184/9 78/185/9 
f 72/183/9 78/185/9 73/186/9 
s 4
f 73/187/10 78/188/10 79/189/10 
f 73/187/10 79/189/10 74/190/10 
s 8
f 74/191/11 79/192/11 80/193/11 
f 74/191/11 80/193/11 75/194/11 
f 75/194/11 80/193/11 81/195/11 
f 75/194/11 81/195/11 76/196/11 
f 76/196/11 81/195/11 77/197/11 
f 76/196/11 77/197/11 72/198/11 
s 1
f 77/199/3 82/200/3 78/201/3 
f 78/201/3 82/200/3 79/202/3 
f 79/202/3 82/200/3 80/203/3 
f 80/203/3 82/200/3 81/204/3 
f 81/204/3 82/200/3 77/199/3 
# 144 faces

