# 3ds Max Wavefront OBJ Exporter v0.99 - (c)2007 guruware
# File Created: 05.01.2023 01:46:32

mtllib ZijStraat.mtl

#
# object StraatZijStraat
#

v  312.1871 -2102.0779 0.0000
v  312.1871 -1472.1567 0.0000
v  2280.6909 -1472.1567 0.0000
v  2280.6909 -2102.0779 0.0000
v  312.1871 -2102.0779 39.3701
v  2280.6909 -2102.0779 39.3701
v  2280.6909 -1472.1567 39.3701
v  312.1871 -1472.1567 39.3701
v  2280.6909 -2102.0779 13.1234
v  312.1871 -2102.0779 13.1234
v  2280.6909 -2102.0779 26.2467
v  312.1871 -2102.0779 26.2467
v  2280.6909 -1472.1567 13.1234
v  2280.6909 -1472.1567 26.2467
v  312.1871 -1472.1567 13.1234
v  312.1871 -1472.1567 26.2467
# 16 vertices

vn 0.0000 0.0000 -1.0000
vn 0.0000 0.0000 1.0000
vn 0.0000 -1.0000 0.0000
vn 1.0000 0.0000 0.0000
vn 0.0000 1.0000 0.0000
vn -1.0000 0.0000 0.0000
# 6 vertex normals

vt 0.0023 0.9494 0.0000
vt 0.0023 0.6297 0.0000
vt 1.0013 0.6297 0.0000
vt 1.0013 0.9494 0.0000
vt 0.0005 0.0005 0.0000
vt 0.9995 0.0005 0.0000
vt 0.9995 0.3202 0.0000
vt 0.0005 0.3202 0.0000
vt 0.0023 0.6006 0.0000
vt 1.0013 0.6006 0.0000
vt 1.0013 0.6072 0.0000
vt 0.0023 0.6072 0.0000
vt 1.0013 0.6139 0.0000
vt 0.0023 0.6139 0.0000
vt 1.0013 0.6205 0.0000
vt 0.0023 0.6205 0.0000
vt 0.0023 0.9712 0.0000
vt 0.3219 0.9712 0.0000
vt 0.3219 0.9778 0.0000
vt 0.0023 0.9778 0.0000
vt 0.3219 0.9845 0.0000
vt 0.0023 0.9845 0.0000
vt 0.3219 0.9912 0.0000
vt 0.0023 0.9912 0.0000
vt 0.0023 0.5714 0.0000
vt 1.0013 0.5714 0.0000
vt 1.0013 0.5781 0.0000
vt 0.0023 0.5781 0.0000
vt 1.0013 0.5847 0.0000
vt 0.0023 0.5847 0.0000
vt 1.0013 0.5914 0.0000
vt 0.0023 0.5914 0.0000
vt 0.0023 0.9504 0.0000
vt 0.3219 0.9504 0.0000
vt 0.3219 0.9570 0.0000
vt 0.0023 0.9570 0.0000
vt 0.3219 0.9637 0.0000
vt 0.0023 0.9637 0.0000
vt 0.3219 0.9703 0.0000
vt 0.0023 0.9703 0.0000
# 40 texture coords

o StraatZijStraat
g StraatZijStraat
usemtl wire_225143087
s 2
f 1/1/1 2/2/1 3/3/1 
f 3/3/1 4/4/1 1/1/1 
s 4
f 5/5/2 6/6/2 7/7/2 
f 7/7/2 8/8/2 5/5/2 
s 8
f 1/9/3 4/10/3 9/11/3 
f 9/11/3 10/12/3 1/9/3 
f 10/12/3 9/11/3 11/13/3 
f 11/13/3 12/14/3 10/12/3 
f 12/14/3 11/13/3 6/15/3 
f 6/15/3 5/16/3 12/14/3 
s 16
f 4/17/4 3/18/4 13/19/4 
f 13/19/4 9/20/4 4/17/4 
f 9/20/4 13/19/4 14/21/4 
f 14/21/4 11/22/4 9/20/4 
f 11/22/4 14/21/4 7/23/4 
f 7/23/4 6/24/4 11/22/4 
s 32
f 3/25/5 2/26/5 15/27/5 
f 15/27/5 13/28/5 3/25/5 
f 13/28/5 15/27/5 16/29/5 
f 16/29/5 14/30/5 13/28/5 
f 14/30/5 16/29/5 8/31/5 
f 8/31/5 7/32/5 14/30/5 
s 64
f 2/33/6 1/34/6 10/35/6 
f 10/35/6 15/36/6 2/33/6 
f 15/36/6 10/35/6 12/37/6 
f 12/37/6 16/38/6 15/36/6 
f 16/38/6 12/37/6 5/39/6 
f 5/39/6 8/40/6 16/38/6 
# 28 faces

